<svg width="16" height="18" viewBox="0 0 16 18" fill="none" xmlns="http://www.w3.org/2000/svg">
<path d="M2 15.5H5V9.5H11V15.5H14V6.5L8 2L2 6.5V15.5ZM2 17.5C1.45 17.5 0.979002 17.304 0.587002 16.912C0.195002 16.52 -0.000664969 16.0493 1.69779e-06 15.5V6.5C1.69779e-06 6.18333 0.0710015 5.88333 0.213002 5.6C0.355002 5.31667 0.550669 5.08333 0.800002 4.9L6.8 0.4C6.98334 0.266667 7.175 0.166667 7.375 0.0999999C7.575 0.0333332 7.78334 0 8 0C8.21667 0 8.425 0.0333332 8.625 0.0999999C8.825 0.166667 9.01667 0.266667 9.2 0.4L15.2 4.9C15.45 5.08333 15.646 5.31667 15.788 5.6C15.93 5.88333 16.0007 6.18333 16 6.5V15.5C16 16.05 15.804 16.521 15.412 16.913C15.02 17.305 14.5493 17.5007 14 17.5H9V11.5H7V17.5H2Z" fill="#555555"/>
</svg>
