<svg width="17" height="17" viewBox="0 0 17 17" fill="none" xmlns="http://www.w3.org/2000/svg">
<path d="M15.3792 5.84612L11.5533 2.02017C10.7509 1.21781 9.64452 0.787077 8.51278 0.846198L4.28984 1.0489C2.60068 1.12491 1.2578 2.46779 1.17334 4.14851L0.970639 8.37142C0.919964 9.50316 1.34226 10.6096 2.14461 11.4119L5.97056 15.2379C7.54152 16.8088 10.0922 16.8088 11.6715 15.2379L15.3792 11.5302C16.9586 9.96768 16.9586 7.41704 15.3792 5.84612ZM6.65467 8.95418C5.31179 8.95418 4.22228 7.86467 4.22228 6.52178C4.22228 5.1789 5.31179 4.08939 6.65467 4.08939C7.99759 4.08939 9.0871 5.1789 9.0871 6.52178C9.0871 7.86467 7.99759 8.95418 6.65467 8.95418Z" fill="#555555"/>
</svg>
