<svg width="19" height="20" viewBox="0 0 19 20" fill="none" xmlns="http://www.w3.org/2000/svg">
<path d="M16.4783 10.9792C16.5183 10.6667 16.5383 10.3438 16.5383 10C16.5383 9.66667 16.5183 9.33334 16.4683 9.02084L18.4983 7.375C18.5858 7.2999 18.6456 7.19552 18.6675 7.07966C18.6894 6.96379 18.672 6.84361 18.6183 6.73958L16.6983 3.28125C16.6418 3.17663 16.5516 3.09623 16.4436 3.05428C16.3356 3.01234 16.2168 3.01156 16.1083 3.05209L13.7183 4.05209C13.2183 3.65625 12.6883 3.32292 12.0983 3.07292L11.7383 0.427086C11.7206 0.307847 11.6625 0.199177 11.5744 0.120811C11.4863 0.0424459 11.3742 -0.000418234 11.2583 3.07646e-06H7.41834C7.17834 3.07646e-06 6.98834 0.177086 6.94834 0.427086L6.58834 3.07292C5.99834 3.32292 5.45834 3.66667 4.96834 4.05209L2.57834 3.05209C2.35834 2.96875 2.10834 3.05209 1.98834 3.28125L0.078343 6.73958C-0.0416569 6.95833 -0.00165707 7.22917 0.198343 7.375L2.22834 9.02084C2.17834 9.33334 2.13834 9.67708 2.13834 10C2.13834 10.3229 2.15834 10.6667 2.20834 10.9792L0.178343 12.625C0.0908669 12.7001 0.0310966 12.8045 0.00921549 12.9203C-0.0126656 13.0362 0.00469628 13.1564 0.0583431 13.2604L1.97834 16.7188C2.09834 16.9479 2.34834 17.0208 2.56834 16.9479L4.95834 15.9479C5.45834 16.3438 5.98834 16.6771 6.57834 16.9271L6.93834 19.5729C6.98834 19.8229 7.17834 20 7.41834 20H11.2583C11.4983 20 11.6983 19.8229 11.7283 19.5729L12.0883 16.9271C12.6783 16.6771 13.2183 16.3438 13.7083 15.9479L16.0983 16.9479C16.3183 17.0312 16.5683 16.9479 16.6883 16.7188L18.6083 13.2604C18.7283 13.0313 18.6783 12.7708 18.4883 12.625L16.4783 10.9792ZM9.33834 13.75C7.35834 13.75 5.73834 12.0625 5.73834 10C5.73834 7.9375 7.35834 6.25 9.33834 6.25C11.3183 6.25 12.9383 7.9375 12.9383 10C12.9383 12.0625 11.3183 13.75 9.33834 13.75Z" fill="#555555"/>
</svg>
