<svg width="294" height="115" viewBox="0 0 294 115" fill="none" xmlns="http://www.w3.org/2000/svg">
<mask id="mask0_8_2916" style="mask-type:alpha" maskUnits="userSpaceOnUse" x="0" y="33" width="84" height="82">
<ellipse cx="72.5142" cy="101.458" rx="10.6118" ry="13.5411" fill="#D9D9D9"/>
<ellipse cx="37.1411" cy="101.458" rx="10.6118" ry="13.5411" fill="#D9D9D9"/>
<path d="M21.2243 33.753L33.9344 70.9232L83.4555 70.6263L83.5054 84.1684L26.9098 84.5076L15.9172 47.2956L19.4544 38.2655L21.2243 33.753Z" fill="#D9D9D9"/>
<path d="M3.53728 47.7269H15.9177L21.2236 33.7539H0V47.7269H3.53728Z" fill="#D9D9D9"/>
</mask>
<g mask="url(#mask0_8_2916)">
<rect x="-11.5254" y="9.06055" width="132.542" height="108.728" fill="#37475A"/>
</g>
<path d="M94.6 58.4C91.64 58.4 89.2933 57.5467 87.56 55.84C85.8267 54.1333 84.8933 51.7067 84.76 48.56C84.7333 48.2933 84.72 47.96 84.72 47.56C84.72 47.1333 84.7333 46.8 84.76 46.56C84.8667 44.56 85.32 42.8267 86.12 41.36C86.9467 39.8933 88.08 38.7733 89.52 38C90.96 37.2 92.6533 36.8 94.6 36.8C96.76 36.8 98.5733 37.2533 100.04 38.16C101.507 39.04 102.613 40.28 103.36 41.88C104.107 43.4533 104.48 45.28 104.48 47.36V48.2C104.48 48.4667 104.387 48.6933 104.2 48.88C104.013 49.0667 103.773 49.16 103.48 49.16H90.2C90.2 49.16 90.2 49.2 90.2 49.28C90.2 49.36 90.2 49.4267 90.2 49.48C90.2267 50.4133 90.4 51.28 90.72 52.08C91.0667 52.8533 91.56 53.48 92.2 53.96C92.8667 54.44 93.6533 54.68 94.56 54.68C95.3067 54.68 95.9333 54.5733 96.44 54.36C96.9467 54.12 97.36 53.8533 97.68 53.56C98 53.2667 98.2267 53.0267 98.36 52.84C98.6 52.52 98.7867 52.3333 98.92 52.28C99.08 52.2 99.3067 52.16 99.6 52.16H103.04C103.307 52.16 103.52 52.24 103.68 52.4C103.867 52.56 103.947 52.76 103.92 53C103.893 53.4267 103.667 53.9467 103.24 54.56C102.84 55.1733 102.253 55.7733 101.48 56.36C100.707 56.9467 99.7333 57.44 98.56 57.84C97.4133 58.2133 96.0933 58.4 94.6 58.4ZM90.2 45.8H99.04V45.68C99.04 44.64 98.8667 43.7333 98.52 42.96C98.1733 42.1867 97.6667 41.5733 97 41.12C96.3333 40.6667 95.5333 40.44 94.6 40.44C93.6667 40.44 92.8667 40.6667 92.2 41.12C91.5333 41.5733 91.0267 42.1867 90.68 42.96C90.36 43.7333 90.2 44.64 90.2 45.68V45.8ZM116.606 58.4C115.006 58.4 113.633 58.2133 112.486 57.84C111.366 57.4667 110.446 57 109.726 56.44C109.006 55.88 108.473 55.32 108.126 54.76C107.779 54.2 107.593 53.7333 107.566 53.36C107.539 53.0667 107.619 52.84 107.806 52.68C108.019 52.4933 108.246 52.4 108.486 52.4H111.646C111.753 52.4 111.846 52.4133 111.926 52.44C112.006 52.4667 112.113 52.5467 112.246 52.68C112.593 52.9733 112.953 53.28 113.326 53.6C113.726 53.92 114.193 54.2 114.726 54.44C115.259 54.6533 115.926 54.76 116.726 54.76C117.766 54.76 118.633 54.56 119.326 54.16C120.046 53.7333 120.406 53.1333 120.406 52.36C120.406 51.8 120.246 51.3467 119.926 51C119.633 50.6533 119.073 50.3467 118.246 50.08C117.419 49.7867 116.246 49.48 114.726 49.16C113.233 48.8133 111.993 48.3733 111.006 47.84C110.019 47.3067 109.286 46.64 108.806 45.84C108.326 45.04 108.086 44.1067 108.086 43.04C108.086 42 108.393 41.0133 109.006 40.08C109.646 39.12 110.579 38.3333 111.806 37.72C113.059 37.1067 114.606 36.8 116.446 36.8C117.886 36.8 119.139 36.9867 120.206 37.36C121.273 37.7067 122.153 38.1467 122.846 38.68C123.566 39.2133 124.113 39.76 124.486 40.32C124.859 40.8533 125.059 41.32 125.086 41.72C125.113 42.0133 125.033 42.2533 124.846 42.44C124.659 42.6 124.446 42.68 124.206 42.68H121.246C121.113 42.68 120.993 42.6533 120.886 42.6C120.779 42.5467 120.673 42.48 120.566 42.4C120.273 42.1333 119.953 41.8533 119.606 41.56C119.259 41.2667 118.833 41.0133 118.326 40.8C117.846 40.56 117.206 40.44 116.406 40.44C115.393 40.44 114.619 40.6667 114.086 41.12C113.553 41.5467 113.286 42.0933 113.286 42.76C113.286 43.2133 113.406 43.6133 113.646 43.96C113.913 44.28 114.433 44.5867 115.206 44.88C115.979 45.1733 117.153 45.48 118.726 45.8C120.513 46.12 121.926 46.6 122.966 47.24C124.033 47.8533 124.779 48.5733 125.206 49.4C125.659 50.2 125.886 51.0933 125.886 52.08C125.886 53.28 125.526 54.36 124.806 55.32C124.113 56.28 123.073 57.04 121.686 57.6C120.326 58.1333 118.633 58.4 116.606 58.4ZM139.337 58C137.737 58 136.39 57.72 135.297 57.16C134.204 56.6 133.39 55.7733 132.857 54.68C132.324 53.56 132.057 52.1733 132.057 50.52V41.44H128.897C128.63 41.44 128.404 41.3467 128.217 41.16C128.03 40.9733 127.937 40.7467 127.937 40.48V38.16C127.937 37.8933 128.03 37.6667 128.217 37.48C128.404 37.2933 128.63 37.2 128.897 37.2H132.057V30.56C132.057 30.2933 132.137 30.0667 132.297 29.88C132.484 29.6933 132.724 29.6 133.017 29.6H136.257C136.524 29.6 136.75 29.6933 136.937 29.88C137.124 30.0667 137.217 30.2933 137.217 30.56V37.2H142.217C142.484 37.2 142.71 37.2933 142.897 37.48C143.084 37.6667 143.177 37.8933 143.177 38.16V40.48C143.177 40.7467 143.084 40.9733 142.897 41.16C142.71 41.3467 142.484 41.44 142.217 41.44H137.217V50.12C137.217 51.2133 137.404 52.0667 137.777 52.68C138.177 53.2933 138.857 53.6 139.817 53.6H142.577C142.844 53.6 143.07 53.6933 143.257 53.88C143.444 54.0667 143.537 54.2933 143.537 54.56V57.04C143.537 57.3067 143.444 57.5333 143.257 57.72C143.07 57.9067 142.844 58 142.577 58H139.337ZM148.045 58C147.779 58 147.552 57.9067 147.365 57.72C147.179 57.5333 147.085 57.3067 147.085 57.04V38.2C147.085 37.9067 147.179 37.6667 147.365 37.48C147.552 37.2933 147.779 37.2 148.045 37.2H151.285C151.552 37.2 151.779 37.2933 151.965 37.48C152.179 37.6667 152.285 37.9067 152.285 38.2V39.84C152.899 38.9867 153.685 38.3333 154.645 37.88C155.632 37.4267 156.765 37.2 158.045 37.2H159.685C159.979 37.2 160.205 37.2933 160.365 37.48C160.552 37.6667 160.645 37.8933 160.645 38.16V41.04C160.645 41.3067 160.552 41.5333 160.365 41.72C160.205 41.9067 159.979 42 159.685 42H156.565C155.285 42 154.285 42.36 153.565 43.08C152.872 43.8 152.525 44.7867 152.525 46.04V57.04C152.525 57.3067 152.432 57.5333 152.245 57.72C152.059 57.9067 151.819 58 151.525 58H148.045ZM171.485 58.4C169.858 58.4 168.445 58.04 167.245 57.32C166.072 56.5733 165.165 55.5333 164.525 54.2C163.885 52.84 163.565 51.24 163.565 49.4V38.16C163.565 37.8933 163.658 37.6667 163.845 37.48C164.032 37.2933 164.258 37.2 164.525 37.2H168.045C168.338 37.2 168.565 37.2933 168.725 37.48C168.912 37.6667 169.005 37.8933 169.005 38.16V49.16C169.005 52.4667 170.458 54.12 173.365 54.12C174.752 54.12 175.845 53.68 176.645 52.8C177.472 51.92 177.885 50.7067 177.885 49.16V38.16C177.885 37.8933 177.978 37.6667 178.165 37.48C178.352 37.2933 178.578 37.2 178.845 37.2H182.365C182.632 37.2 182.858 37.2933 183.045 37.48C183.232 37.6667 183.325 37.8933 183.325 38.16V57.04C183.325 57.3067 183.232 57.5333 183.045 57.72C182.858 57.9067 182.632 58 182.365 58H179.125C178.832 58 178.592 57.9067 178.405 57.72C178.245 57.5333 178.165 57.3067 178.165 57.04V55.4C177.445 56.3333 176.552 57.0667 175.485 57.6C174.418 58.1333 173.085 58.4 171.485 58.4ZM197.609 58.4C195.689 58.4 193.995 58.04 192.529 57.32C191.089 56.6 189.955 55.56 189.129 54.2C188.329 52.8133 187.889 51.1467 187.809 49.2C187.782 48.8 187.769 48.28 187.769 47.64C187.769 46.9733 187.782 46.4267 187.809 46C187.889 44.0533 188.329 42.4 189.129 41.04C189.955 39.6533 191.089 38.6 192.529 37.88C193.995 37.16 195.689 36.8 197.609 36.8C199.315 36.8 200.769 37.04 201.969 37.52C203.169 38 204.155 38.6 204.929 39.32C205.702 40.04 206.275 40.8 206.649 41.6C207.049 42.3733 207.262 43.08 207.289 43.72C207.315 44.0133 207.222 44.2533 207.009 44.44C206.822 44.6 206.595 44.68 206.329 44.68H202.809C202.542 44.68 202.329 44.6133 202.169 44.48C202.035 44.3467 201.902 44.1467 201.769 43.88C201.369 42.8133 200.835 42.0667 200.169 41.64C199.529 41.1867 198.702 40.96 197.689 40.96C196.355 40.96 195.289 41.3867 194.489 42.24C193.715 43.0667 193.302 44.3867 193.249 46.2C193.195 47.2133 193.195 48.1467 193.249 49C193.302 50.84 193.715 52.1733 194.489 53C195.289 53.8267 196.355 54.24 197.689 54.24C198.729 54.24 199.569 54.0267 200.209 53.6C200.849 53.1467 201.369 52.3867 201.769 51.32C201.902 51.0533 202.035 50.8533 202.169 50.72C202.329 50.5867 202.542 50.52 202.809 50.52H206.329C206.595 50.52 206.822 50.6133 207.009 50.8C207.222 50.96 207.315 51.1867 207.289 51.48C207.262 51.96 207.129 52.5067 206.889 53.12C206.675 53.7067 206.315 54.32 205.809 54.96C205.329 55.5733 204.715 56.1467 203.969 56.68C203.222 57.1867 202.315 57.6 201.249 57.92C200.209 58.24 198.995 58.4 197.609 58.4ZM220.86 58C219.26 58 217.914 57.72 216.82 57.16C215.727 56.6 214.914 55.7733 214.38 54.68C213.847 53.56 213.58 52.1733 213.58 50.52V41.44H210.42C210.154 41.44 209.927 41.3467 209.74 41.16C209.554 40.9733 209.46 40.7467 209.46 40.48V38.16C209.46 37.8933 209.554 37.6667 209.74 37.48C209.927 37.2933 210.154 37.2 210.42 37.2H213.58V30.56C213.58 30.2933 213.66 30.0667 213.82 29.88C214.007 29.6933 214.247 29.6 214.54 29.6H217.78C218.047 29.6 218.274 29.6933 218.46 29.88C218.647 30.0667 218.74 30.2933 218.74 30.56V37.2H223.74C224.007 37.2 224.234 37.2933 224.42 37.48C224.607 37.6667 224.7 37.8933 224.7 38.16V40.48C224.7 40.7467 224.607 40.9733 224.42 41.16C224.234 41.3467 224.007 41.44 223.74 41.44H218.74V50.12C218.74 51.2133 218.927 52.0667 219.3 52.68C219.7 53.2933 220.38 53.6 221.34 53.6H224.1C224.367 53.6 224.594 53.6933 224.78 53.88C224.967 54.0667 225.06 54.2933 225.06 54.56V57.04C225.06 57.3067 224.967 57.5333 224.78 57.72C224.594 57.9067 224.367 58 224.1 58H220.86ZM237.809 58.4C235.675 58.4 233.875 58.0267 232.409 57.28C230.969 56.5333 229.862 55.48 229.089 54.12C228.342 52.76 227.915 51.1733 227.809 49.36C227.782 48.88 227.769 48.2933 227.769 47.6C227.769 46.9067 227.782 46.32 227.809 45.84C227.915 44 228.355 42.4133 229.129 41.08C229.929 39.72 231.049 38.6667 232.489 37.92C233.955 37.1733 235.729 36.8 237.809 36.8C239.889 36.8 241.649 37.1733 243.089 37.92C244.555 38.6667 245.675 39.72 246.449 41.08C247.249 42.4133 247.702 44 247.809 45.84C247.835 46.32 247.849 46.9067 247.849 47.6C247.849 48.2933 247.835 48.88 247.809 49.36C247.702 51.1733 247.262 52.76 246.489 54.12C245.742 55.48 244.635 56.5333 243.169 57.28C241.729 58.0267 239.942 58.4 237.809 58.4ZM237.809 54.44C239.222 54.44 240.315 54 241.089 53.12C241.862 52.2133 242.289 50.8933 242.369 49.16C242.395 48.76 242.409 48.24 242.409 47.6C242.409 46.96 242.395 46.44 242.369 46.04C242.289 44.3333 241.862 43.0267 241.089 42.12C240.315 41.2133 239.222 40.76 237.809 40.76C236.395 40.76 235.302 41.2133 234.529 42.12C233.755 43.0267 233.329 44.3333 233.249 46.04C233.222 46.44 233.209 46.96 233.209 47.6C233.209 48.24 233.222 48.76 233.249 49.16C233.329 50.8933 233.755 52.2133 234.529 53.12C235.302 54 236.395 54.44 237.809 54.44ZM253.241 58C252.974 58 252.747 57.9067 252.561 57.72C252.374 57.5333 252.281 57.3067 252.281 57.04V38.2C252.281 37.9067 252.374 37.6667 252.561 37.48C252.747 37.2933 252.974 37.2 253.241 37.2H256.481C256.747 37.2 256.974 37.2933 257.161 37.48C257.374 37.6667 257.481 37.9067 257.481 38.2V39.84C258.094 38.9867 258.881 38.3333 259.841 37.88C260.827 37.4267 261.961 37.2 263.241 37.2H264.881C265.174 37.2 265.401 37.2933 265.561 37.48C265.747 37.6667 265.841 37.8933 265.841 38.16V41.04C265.841 41.3067 265.747 41.5333 265.561 41.72C265.401 41.9067 265.174 42 264.881 42H261.761C260.481 42 259.481 42.36 258.761 43.08C258.067 43.8 257.721 44.7867 257.721 46.04V57.04C257.721 57.3067 257.627 57.5333 257.441 57.72C257.254 57.9067 257.014 58 256.721 58H253.241ZM276.84 58.4C275.24 58.4 273.867 58.2133 272.72 57.84C271.6 57.4667 270.68 57 269.96 56.44C269.24 55.88 268.707 55.32 268.36 54.76C268.014 54.2 267.827 53.7333 267.8 53.36C267.774 53.0667 267.854 52.84 268.04 52.68C268.254 52.4933 268.48 52.4 268.72 52.4H271.88C271.987 52.4 272.08 52.4133 272.16 52.44C272.24 52.4667 272.347 52.5467 272.48 52.68C272.827 52.9733 273.187 53.28 273.56 53.6C273.96 53.92 274.427 54.2 274.96 54.44C275.494 54.6533 276.16 54.76 276.96 54.76C278 54.76 278.867 54.56 279.56 54.16C280.28 53.7333 280.64 53.1333 280.64 52.36C280.64 51.8 280.48 51.3467 280.16 51C279.867 50.6533 279.307 50.3467 278.48 50.08C277.654 49.7867 276.48 49.48 274.96 49.16C273.467 48.8133 272.227 48.3733 271.24 47.84C270.254 47.3067 269.52 46.64 269.04 45.84C268.56 45.04 268.32 44.1067 268.32 43.04C268.32 42 268.627 41.0133 269.24 40.08C269.88 39.12 270.814 38.3333 272.04 37.72C273.294 37.1067 274.84 36.8 276.68 36.8C278.12 36.8 279.374 36.9867 280.44 37.36C281.507 37.7067 282.387 38.1467 283.08 38.68C283.8 39.2133 284.347 39.76 284.72 40.32C285.094 40.8533 285.294 41.32 285.32 41.72C285.347 42.0133 285.267 42.2533 285.08 42.44C284.894 42.6 284.68 42.68 284.44 42.68H281.48C281.347 42.68 281.227 42.6533 281.12 42.6C281.014 42.5467 280.907 42.48 280.8 42.4C280.507 42.1333 280.187 41.8533 279.84 41.56C279.494 41.2667 279.067 41.0133 278.56 40.8C278.08 40.56 277.44 40.44 276.64 40.44C275.627 40.44 274.854 40.6667 274.32 41.12C273.787 41.5467 273.52 42.0933 273.52 42.76C273.52 43.2133 273.64 43.6133 273.88 43.96C274.147 44.28 274.667 44.5867 275.44 44.88C276.214 45.1733 277.387 45.48 278.96 45.8C280.747 46.12 282.16 46.6 283.2 47.24C284.267 47.8533 285.014 48.5733 285.44 49.4C285.894 50.2 286.12 51.0933 286.12 52.08C286.12 53.28 285.76 54.36 285.04 55.32C284.347 56.28 283.307 57.04 281.92 57.6C280.56 58.1333 278.867 58.4 276.84 58.4Z" fill="#555555"/>
<path d="M35.397 63.4055C37.0395 63.5514 38.2068 63.3453 38.8989 62.7871C39.5971 62.1861 40.05 61.3094 40.2575 60.1571C40.514 58.9681 40.749 57.6227 40.9624 56.1212L44.9137 28.3205C45.0356 27.4625 45.1729 26.6504 45.3256 25.8843C45.4843 25.0752 45.6309 24.352 45.7653 23.7146C44.9869 23.6477 44.2086 23.5808 43.4302 23.514C42.6519 23.4471 41.8736 23.3803 41.0952 23.3134L41.4977 20.4819L56.6942 22.5761C60.5554 23.1249 64.0308 24.0784 67.1204 25.4366C70.21 26.7949 72.779 28.5825 74.8275 30.7995C76.9249 32.9796 78.3914 35.5954 79.227 38.6466C80.1117 41.6611 80.2796 45.0989 79.7308 48.9601C79.3101 51.9204 78.3928 54.6788 76.979 57.2353C75.5652 59.7918 73.6793 61.9748 71.3212 63.7843C68.9692 65.5509 66.1603 66.8368 62.8945 67.6419C59.6777 68.4103 56.0529 68.5078 52.0201 67.9347L35.0952 65.5292L35.397 63.4055ZM46.2136 59.3623C46.049 60.5207 45.8873 61.5044 45.7285 62.3134C45.6127 63.1286 45.4722 63.8089 45.3071 64.3544C46.4594 64.562 47.5044 64.7543 48.4421 64.9313C49.4289 65.0716 50.244 65.1874 50.8876 65.2789C51.574 65.3764 52.003 65.4374 52.1746 65.4618C54.9633 65.8581 57.5462 65.7 59.9235 64.9875C62.3436 64.281 64.4755 63.1396 66.3189 61.5633C68.2114 59.9502 69.7605 57.9819 70.9661 55.6585C72.2207 53.2982 73.0522 50.6808 73.4608 47.8064C74.04 43.7307 73.7893 40.106 72.7084 36.9323C71.6766 33.7219 69.7535 31.085 66.9391 29.0218C64.1309 26.9157 60.3671 25.5273 55.6479 24.8565C54.0605 24.6309 52.8993 24.7942 52.1643 25.3462C51.4722 25.9044 51.001 26.7566 50.7505 27.9027C50.543 29.055 50.3295 30.4033 50.1099 31.9478L46.2136 59.3623Z" fill="#2D719D"/>
</svg>
