<svg width="33" height="34" viewBox="0 0 33 34" fill="none" xmlns="http://www.w3.org/2000/svg">
<path d="M31.6094 16.8467C31.6094 25.5668 24.7668 32.6083 16.3594 32.6083C7.95198 32.6083 1.10938 25.5668 1.10938 16.8467C1.10938 8.1267 7.95198 1.08521 16.3594 1.08521C24.7668 1.08521 31.6094 8.1267 31.6094 16.8467Z" fill="url(#paint0_linear_400_3317)" fill-opacity="0.05" stroke="url(#paint1_linear_400_3317)"/>
<path d="M15.9433 14.5634C14.4973 14.5634 13.3172 15.7818 13.3172 17.2748C13.3172 18.7678 14.4973 19.9862 15.9433 19.9862C17.3894 19.9862 18.5695 18.7678 18.5695 17.2748C18.5695 15.7818 17.3894 14.5634 15.9433 14.5634ZM23.8197 17.2748C23.8197 16.152 23.8296 15.0394 23.7685 13.9186C23.7074 12.6168 23.4198 11.4614 22.4978 10.5095C21.5738 9.55553 20.4568 9.26059 19.1959 9.19753C18.1085 9.13448 17.0308 9.14465 15.9453 9.14465C14.8578 9.14465 13.7802 9.13448 12.6947 9.19753C11.4338 9.26059 10.3148 9.55756 9.39282 10.5095C8.46885 11.4635 8.18319 12.6168 8.12212 13.9186C8.06105 15.0414 8.0709 16.154 8.0709 17.2748C8.0709 18.3956 8.06105 19.5103 8.12212 20.631C8.18319 21.9328 8.47082 23.0882 9.39282 24.0401C10.3168 24.9941 11.4338 25.289 12.6947 25.3521C13.7822 25.4151 14.8598 25.405 15.9453 25.405C17.0328 25.405 18.1104 25.4151 19.1959 25.3521C20.4568 25.289 21.5758 24.9921 22.4978 24.0401C23.4218 23.0861 23.7074 21.9328 23.7685 20.631C23.8315 19.5103 23.8197 18.3976 23.8197 17.2748ZM15.9433 21.4467C13.7073 21.4467 11.9027 19.5835 11.9027 17.2748C11.9027 14.9661 13.7073 13.1029 15.9433 13.1029C18.1794 13.1029 19.984 14.9661 19.984 17.2748C19.984 19.5835 18.1794 21.4467 15.9433 21.4467ZM20.1495 13.9064C19.6274 13.9064 19.2058 13.4711 19.2058 12.9321C19.2058 12.3931 19.6274 11.9578 20.1495 11.9578C20.6715 11.9578 21.0931 12.3931 21.0931 12.9321C21.0933 13.0601 21.069 13.1868 21.0216 13.3051C20.9743 13.4234 20.9047 13.5309 20.8171 13.6214C20.7294 13.7119 20.6253 13.7837 20.5108 13.8326C20.3962 13.8815 20.2734 13.9066 20.1495 13.9064Z" fill="#555555"/>
<defs>
<linearGradient id="paint0_linear_400_3317" x1="16.3594" y1="0.585205" x2="16.3594" y2="33.1083" gradientUnits="userSpaceOnUse">
<stop stop-color="#FEFEFF" stop-opacity="0.29"/>
<stop offset="1" stop-color="white" stop-opacity="0.4"/>
</linearGradient>
<linearGradient id="paint1_linear_400_3317" x1="-0.901526" y1="2.76624" x2="35.3743" y2="7.15628" gradientUnits="userSpaceOnUse">
<stop stop-color="white" stop-opacity="0.08"/>
<stop offset="1" stop-color="white" stop-opacity="0.07"/>
</linearGradient>
</defs>
</svg>
