<svg width="33" height="34" viewBox="0 0 33 34" fill="none" xmlns="http://www.w3.org/2000/svg">
<path d="M31.7832 16.8467C31.7832 25.5668 24.9406 32.6083 16.5332 32.6083C8.1258 32.6083 1.2832 25.5668 1.2832 16.8467C1.2832 8.1267 8.1258 1.08521 16.5332 1.08521C24.9406 1.08521 31.7832 8.1267 31.7832 16.8467Z" fill="url(#paint0_linear_400_3320)" fill-opacity="0.05" stroke="url(#paint1_linear_400_3320)"/>
<path d="M9.9024 14.428C9.9024 13.688 10.0277 12.9888 10.2746 12.3363C10.5105 11.7025 10.861 11.1208 11.3074 10.6222C11.7529 10.1301 12.2627 9.70461 12.822 9.35798C13.3959 8.99951 14.0172 8.72907 14.6665 8.55514C15.3236 8.377 16.0002 8.28716 16.6795 8.28785C17.7289 8.28785 18.7055 8.51709 19.6111 8.97368C20.505 9.42195 21.2658 10.1099 21.814 10.9656C22.3797 11.8359 22.6607 12.8205 22.6607 13.9182C22.6607 14.5764 22.598 15.2204 22.47 15.8501C22.3442 16.4795 22.1444 17.0906 21.8748 17.6698C21.6179 18.2305 21.282 18.7489 20.8779 19.208C20.4719 19.6598 19.9802 20.0205 19.4333 20.2676C18.8397 20.5363 18.1974 20.6715 17.5493 20.6643C17.0987 20.6643 16.6491 20.5549 16.2051 20.3352C15.761 20.1164 15.4422 19.8158 15.2506 19.4306C15.1833 19.6979 15.0912 20.0841 14.9687 20.5892C14.8507 21.0933 14.7715 21.4186 14.7365 21.5661C14.6997 21.7126 14.6315 21.957 14.532 22.2957C14.4645 22.5462 14.3779 22.7908 14.2731 23.0272L13.9562 23.6683C13.8191 23.9434 13.6659 24.2096 13.4973 24.4654C13.3306 24.7147 13.1242 25.0124 12.8782 25.3548L12.741 25.4053L12.6497 25.3025C12.5512 24.2248 12.5005 23.5798 12.5005 23.3668C12.5005 22.7361 12.5733 22.0284 12.717 21.2427C12.858 20.4579 13.0809 19.4715 13.3803 18.2853C13.6798 17.1001 13.8511 16.4028 13.8972 16.1964C13.6862 15.7522 13.5793 15.1719 13.5793 14.4585C13.5793 13.8887 13.7516 13.3551 14.0971 12.8528C14.4435 12.3525 14.8812 12.1023 15.4118 12.1023C15.8181 12.1023 16.1332 12.2412 16.3589 12.5199C16.5856 12.7976 16.6961 13.1477 16.6961 13.5748C16.6961 14.0276 16.5506 14.683 16.2576 15.54C15.9646 16.398 15.819 17.0382 15.819 17.4634C15.819 17.8943 15.9683 18.2548 16.2668 18.5374C16.5614 18.82 16.951 18.9732 17.353 18.9645C17.7179 18.9645 18.056 18.8789 18.3701 18.7067C18.6794 18.5396 18.9471 18.3009 19.1523 18.0094C19.5994 17.3762 19.9181 16.6563 20.0893 15.8929C20.1778 15.4915 20.2459 15.1101 20.2883 14.7515C20.3335 14.3909 20.3528 14.0504 20.3528 13.727C20.3528 12.5408 19.988 11.6162 19.2629 10.9541C18.5341 10.2921 17.5852 9.96296 16.4179 9.96296C15.0903 9.96296 13.9801 10.4062 13.0911 11.2956C12.2011 12.1822 11.7533 13.3094 11.7533 14.6763C11.7533 14.9779 11.7975 15.2689 11.8814 15.5505C11.9634 15.8311 12.0527 16.0546 12.1495 16.2202C12.2453 16.3828 12.3356 16.5417 12.4176 16.6882C12.5005 16.8347 12.5438 16.9393 12.5438 17.0021C12.5438 17.1942 12.495 17.4444 12.3964 17.7535C12.2941 18.0627 12.1734 18.2168 12.0279 18.2168C12.014 18.2168 11.9569 18.2063 11.8574 18.1845C11.5128 18.0782 11.2016 17.8797 10.9555 17.609C10.6942 17.3284 10.488 16.9983 10.3483 16.6368C10.209 16.2766 10.1005 15.9045 10.024 15.5248C9.9414 15.1655 9.90058 14.7973 9.9024 14.428Z" fill="#555555"/>
<defs>
<linearGradient id="paint0_linear_400_3320" x1="16.5332" y1="0.585205" x2="16.5332" y2="33.1083" gradientUnits="userSpaceOnUse">
<stop stop-color="#FEFEFF" stop-opacity="0.29"/>
<stop offset="1" stop-color="white" stop-opacity="0.4"/>
</linearGradient>
<linearGradient id="paint1_linear_400_3320" x1="-0.727698" y1="2.76624" x2="35.5481" y2="7.15628" gradientUnits="userSpaceOnUse">
<stop stop-color="white" stop-opacity="0.08"/>
<stop offset="1" stop-color="white" stop-opacity="0.07"/>
</linearGradient>
</defs>
</svg>
