<svg width="32" height="34" viewBox="0 0 32 34" fill="none" xmlns="http://www.w3.org/2000/svg">
<path d="M31.4355 16.8467C31.4355 25.5668 24.5929 32.6083 16.1855 32.6083C7.77815 32.6083 0.935547 25.5668 0.935547 16.8467C0.935547 8.1267 7.77815 1.08521 16.1855 1.08521C24.5929 1.08521 31.4355 8.1267 31.4355 16.8467Z" fill="url(#paint0_linear_400_3314)" fill-opacity="0.05" stroke="url(#paint1_linear_400_3314)"/>
<path d="M24.4754 11.6519C23.8658 11.9234 23.2023 12.1189 22.5189 12.195C23.2284 11.7598 23.7597 11.0722 24.0132 10.2613C23.3474 10.6702 22.618 10.957 21.8574 11.1088C21.5395 10.7579 21.155 10.4784 20.7279 10.2876C20.3008 10.0968 19.8402 9.99895 19.3748 10C17.492 10 15.9777 11.5758 15.9777 13.5095C15.9777 13.781 16.0096 14.0526 16.0614 14.3138C13.2422 14.1616 10.7277 12.771 9.05607 10.6418C8.75148 11.179 8.59187 11.7906 8.59383 12.413C8.59383 13.6308 9.19355 14.7047 10.1081 15.3362C9.56913 15.3143 9.04281 15.1614 8.57192 14.8898V14.933C8.57192 16.6384 9.73948 18.0516 11.2956 18.3767C11.0034 18.455 10.7028 18.4951 10.401 18.496C10.1798 18.496 9.9706 18.4733 9.7594 18.4425C10.1898 19.8331 11.443 20.8432 12.9353 20.8761C11.7678 21.8203 10.3053 22.3757 8.71736 22.3757C8.43245 22.3757 8.16945 22.3654 7.89648 22.3325C9.40276 23.3302 11.19 23.9062 13.1146 23.9062C19.3629 23.9062 22.7819 18.5618 22.7819 13.923C22.7819 13.7707 22.7819 13.6185 22.7719 13.4663C23.4334 12.9664 24.0132 12.3472 24.4754 11.6519Z" fill="#555555"/>
<defs>
<linearGradient id="paint0_linear_400_3314" x1="16.1855" y1="0.585205" x2="16.1855" y2="33.1083" gradientUnits="userSpaceOnUse">
<stop stop-color="#FEFEFF" stop-opacity="0.29"/>
<stop offset="1" stop-color="white" stop-opacity="0.4"/>
</linearGradient>
<linearGradient id="paint1_linear_400_3314" x1="-1.07535" y1="2.76624" x2="35.2004" y2="7.15628" gradientUnits="userSpaceOnUse">
<stop stop-color="white" stop-opacity="0.08"/>
<stop offset="1" stop-color="white" stop-opacity="0.07"/>
</linearGradient>
</defs>
</svg>
