<svg width="105" height="105" viewBox="0 0 105 105" fill="none" xmlns="http://www.w3.org/2000/svg">
<g filter="url(#filter0_d_8_6284)">
<ellipse cx="52.4245" cy="50.4472" rx="19.4245" ry="19.4472" fill="#7AC751"/>
</g>
<g clip-path="url(#clip0_8_6284)">
<path d="M61.3276 56.1193H59.7089V54.4987C59.7089 54.2838 59.6236 54.0776 59.4718 53.9257C59.32 53.7737 59.1142 53.6884 58.8995 53.6884C58.6849 53.6884 58.479 53.7737 58.3272 53.9257C58.1754 54.0776 58.0902 54.2838 58.0902 54.4987V56.1193H56.4715C56.2568 56.1193 56.0509 56.2046 55.8992 56.3566C55.7474 56.5086 55.6621 56.7147 55.6621 56.9296C55.6621 57.1445 55.7474 57.3506 55.8992 57.5025C56.0509 57.6545 56.2568 57.7399 56.4715 57.7399H58.0902V59.3605C58.0902 59.5754 58.1754 59.7815 58.3272 59.9334C58.479 60.0854 58.6849 60.1708 58.8995 60.1708C59.1142 60.1708 59.32 60.0854 59.4718 59.9334C59.6236 59.7815 59.7089 59.5754 59.7089 59.3605V57.7399H61.3276C61.5422 57.7399 61.7481 57.6545 61.8999 57.5025C62.0517 57.3506 62.1369 57.1445 62.1369 56.9296C62.1369 56.7147 62.0517 56.5086 61.8999 56.3566C61.7481 56.2046 61.5422 56.1193 61.3276 56.1193Z" fill="white"/>
<path d="M59.7088 45.5853H57.2807C57.2807 44.2959 56.7691 43.0593 55.8584 42.1475C54.9477 41.2357 53.7126 40.7235 52.4246 40.7235C51.1367 40.7235 49.9015 41.2357 48.9908 42.1475C48.0801 43.0593 47.5685 44.2959 47.5685 45.5853H45.1405C44.4965 45.5853 43.8789 45.8414 43.4236 46.2973C42.9682 46.7532 42.7124 47.3715 42.7124 48.0162V56.1192C42.7137 57.1934 43.1405 58.2231 43.8991 58.9827C44.6577 59.7422 45.6863 60.1695 46.7592 60.1707H54.0433C54.258 60.1707 54.4639 60.0854 54.6156 59.9334C54.7674 59.7815 54.8527 59.5754 54.8527 59.3604C54.8527 59.1455 54.7674 58.9394 54.6156 58.7875C54.4639 58.6355 54.258 58.5501 54.0433 58.5501H46.7592C46.1152 58.5501 45.4976 58.294 45.0423 57.8382C44.5869 57.3823 44.3311 56.764 44.3311 56.1192V48.0162C44.3311 47.8013 44.4164 47.5952 44.5682 47.4433C44.7199 47.2913 44.9258 47.2059 45.1405 47.2059H47.5685V48.8265C47.5685 49.0414 47.6538 49.2475 47.8056 49.3995C47.9574 49.5515 48.1632 49.6368 48.3779 49.6368C48.5925 49.6368 48.7984 49.5515 48.9502 49.3995C49.102 49.2475 49.1872 49.0414 49.1872 48.8265V47.2059H55.662V48.8265C55.662 49.0414 55.7473 49.2475 55.8991 49.3995C56.0509 49.5515 56.2567 49.6368 56.4714 49.6368C56.686 49.6368 56.8919 49.5515 57.0437 49.3995C57.1955 49.2475 57.2807 49.0414 57.2807 48.8265V47.2059H59.7088C59.9235 47.2059 60.1293 47.2913 60.2811 47.4433C60.4329 47.5952 60.5182 47.8013 60.5182 48.0162V52.0677C60.5182 52.2826 60.6034 52.4887 60.7552 52.6407C60.907 52.7927 61.1129 52.878 61.3275 52.878C61.5422 52.878 61.748 52.7927 61.8998 52.6407C62.0516 52.4887 62.1369 52.2826 62.1369 52.0677V48.0162C62.1369 47.3715 61.8811 46.7532 61.4257 46.2973C60.9704 45.8414 60.3528 45.5853 59.7088 45.5853ZM49.1872 45.5853C49.1872 44.7257 49.5283 43.9013 50.1354 43.2934C50.7426 42.6856 51.566 42.3441 52.4246 42.3441C53.2832 42.3441 54.1067 42.6856 54.7138 43.2934C55.321 43.9013 55.662 44.7257 55.662 45.5853H49.1872Z" fill="white"/>
</g>
<defs>
<filter id="filter0_d_8_6284" x="0" y="0" width="104.849" height="104.895" filterUnits="userSpaceOnUse" color-interpolation-filters="sRGB">
<feFlood flood-opacity="0" result="BackgroundImageFix"/>
<feColorMatrix in="SourceAlpha" type="matrix" values="0 0 0 0 0 0 0 0 0 0 0 0 0 0 0 0 0 0 127 0" result="hardAlpha"/>
<feOffset dy="2"/>
<feGaussianBlur stdDeviation="16.5"/>
<feComposite in2="hardAlpha" operator="out"/>
<feColorMatrix type="matrix" values="0 0 0 0 0 0 0 0 0 0 0 0 0 0 0 0 0 0 0.09 0"/>
<feBlend mode="normal" in2="BackgroundImageFix" result="effect1_dropShadow_8_6284"/>
<feBlend mode="normal" in="SourceGraphic" in2="effect1_dropShadow_8_6284" result="shape"/>
</filter>
<clipPath id="clip0_8_6284">
<rect width="19.4245" height="19.4472" fill="white" transform="translate(42.7124 40.7235)"/>
</clipPath>
</defs>
</svg>
