<svg width="24" height="24" viewBox="0 0 24 24" fill="none" xmlns="http://www.w3.org/2000/svg">
<path d="M15.6177 11.1284C17.1533 10.0084 18.1534 8.19581 18.1534 6.15384C18.1534 2.76061 15.3928 0 11.9995 0C8.6063 0 5.84569 2.76061 5.84569 6.15384C5.84569 8.19581 6.84567 10.0084 8.38139 11.1284C4.56389 12.5892 1.8457 16.2905 1.8457 20.6154C1.8457 22.4817 3.36403 24 5.23031 24H18.7688C20.635 24 22.1534 22.4817 22.1534 20.6154C22.1534 16.2905 19.4352 12.5892 15.6177 11.1284ZM7.69186 6.15384C7.69186 3.77859 9.62428 1.84617 11.9995 1.84617C14.3748 1.84617 16.3072 3.77859 16.3072 6.15384C16.3072 8.52909 14.3748 10.4616 11.9995 10.4616C9.62428 10.4616 7.69186 8.52909 7.69186 6.15384ZM18.7688 22.1538H5.23031C4.38202 22.1538 3.69188 21.4637 3.69188 20.6153C3.69188 16.0344 7.41863 12.3076 11.9996 12.3076C16.5805 12.3076 20.3073 16.0344 20.3073 20.6153C20.3072 21.4637 19.6171 22.1538 18.7688 22.1538Z" fill="#64B937"/>
</svg>
