<svg width="105" height="105" viewBox="0 0 105 105" fill="none" xmlns="http://www.w3.org/2000/svg">
<path d="M52.6309 0.2146C23.7206 0.2146 0.296875 23.6383 0.296875 52.5487C0.296875 81.459 23.7206 104.883 52.6309 104.883C81.5413 104.883 104.965 81.459 104.965 52.5487C104.965 23.6383 81.5413 0.2146 52.6309 0.2146ZM52.6309 20.4729C62.8867 20.4729 71.2011 28.7873 71.2011 39.0431C71.2011 49.2989 62.8867 57.6133 52.6309 57.6133C42.3752 57.6133 34.0608 49.2989 34.0608 39.0431C34.0608 28.7873 42.3752 20.4729 52.6309 20.4729ZM52.6309 93.0654C40.2438 93.0654 29.1439 87.4521 21.7159 78.6735C25.6831 71.2032 33.4488 66.0542 42.5018 66.0542C43.0082 66.0542 43.5147 66.1386 44 66.2864C46.7434 67.1727 49.6133 67.7424 52.6309 67.7424C55.6486 67.7424 58.5396 67.1727 61.2618 66.2864C61.7472 66.1386 62.2537 66.0542 62.7601 66.0542C71.8131 66.0542 79.5788 71.2032 83.546 78.6735C76.118 87.4521 65.0181 93.0654 52.6309 93.0654Z" fill="black"/>
</svg>
