<svg width="128" height="128" viewBox="0 0 128 128" fill="none" xmlns="http://www.w3.org/2000/svg">
<g filter="url(#filter0_d_8_3991)">
<ellipse cx="63.7899" cy="61.8255" rx="30.7894" ry="30.8255" fill="#FF0303"/>
</g>
<path fill-rule="evenodd" clip-rule="evenodd" d="M60.6555 50.1338C60.6555 50.0602 60.7152 50.0005 60.7888 50.0005H66.5048C66.5784 50.0005 66.6381 50.0602 66.6381 50.1338V51.8103H60.6555V50.1338ZM59.6555 51.8103V50.1338C59.6555 49.5079 60.1629 49.0005 60.7888 49.0005H66.5048C67.1307 49.0005 67.6381 49.5079 67.6381 50.1338V51.8103H71.1599C71.7858 51.8103 72.2932 52.3177 72.2932 52.9436V54.4864C72.2932 55.1123 71.7858 55.6197 71.1599 55.6197H56.1338C55.5079 55.6197 55.0005 55.1123 55.0005 54.4864V52.9436C55.0005 52.3177 55.5079 51.8103 56.1338 51.8103H59.6555ZM56.1338 52.8103C56.0602 52.8103 56.0005 52.87 56.0005 52.9436V54.4864C56.0005 54.56 56.0602 54.6197 56.1338 54.6197H71.1599C71.2335 54.6197 71.2932 54.56 71.2932 54.4864V52.9436C71.2932 52.87 71.2335 52.8103 71.1599 52.8103H56.1338ZM56.0005 58.5598C56.0005 58.4862 56.0602 58.4265 56.1338 58.4265H71.1599C71.2335 58.4265 71.2932 58.4862 71.2932 58.5598V73.5163C71.2932 73.9397 70.95 74.2829 70.5266 74.2829H56.7672C56.3437 74.2829 56.0005 73.9397 56.0005 73.5163V58.5598ZM56.1338 57.4265C55.5079 57.4265 55.0005 57.9339 55.0005 58.5598V73.5163C55.0005 74.492 55.7915 75.2829 56.7672 75.2829H70.5266C71.5023 75.2829 72.2932 74.492 72.2932 73.5163V58.5598C72.2932 57.9339 71.7858 57.4265 71.1599 57.4265H56.1338ZM58.328 63.3055C58.328 62.9389 58.6252 62.6418 58.9918 62.6418C59.3584 62.6418 59.6555 62.9389 59.6555 63.3055V69.4062C59.6555 69.7728 59.3584 70.07 58.9918 70.07C58.6252 70.07 58.328 69.7728 58.328 69.4062V63.3055ZM58.9918 61.6418C58.0729 61.6418 57.328 62.3867 57.328 63.3055V69.4062C57.328 70.3251 58.0729 71.07 58.9918 71.07C59.9106 71.07 60.6555 70.3251 60.6555 69.4062V63.3055C60.6555 62.3867 59.9106 61.6418 58.9918 61.6418ZM63.6468 62.6418C63.2802 62.6418 62.983 62.9389 62.983 63.3055V69.4062C62.983 69.7728 63.2802 70.07 63.6468 70.07C64.0134 70.07 64.3106 69.7728 64.3106 69.4062V63.3055C64.3106 62.9389 64.0134 62.6418 63.6468 62.6418ZM61.983 63.3055C61.983 62.3867 62.7279 61.6418 63.6468 61.6418C64.5657 61.6418 65.3106 62.3867 65.3106 63.3055V69.4062C65.3106 70.3251 64.5657 71.07 63.6468 71.07C62.7279 71.07 61.983 70.3251 61.983 69.4062V63.3055ZM67.6383 63.3055C67.6383 62.9389 67.9355 62.6418 68.302 62.6418C68.6686 62.6418 68.9658 62.9389 68.9658 63.3055V69.4062C68.9658 69.7728 68.6686 70.07 68.302 70.07C67.9355 70.07 67.6383 69.7728 67.6383 69.4062V63.3055ZM68.302 61.6418C67.3832 61.6418 66.6383 62.3867 66.6383 63.3055V69.4062C66.6383 70.3251 67.3832 71.07 68.302 71.07C69.2209 71.07 69.9658 70.3251 69.9658 69.4062V63.3055C69.9658 62.3867 69.2209 61.6418 68.302 61.6418Z" fill="white"/>
<defs>
<filter id="filter0_d_8_3991" x="0.000488281" y="0" width="127.579" height="127.651" filterUnits="userSpaceOnUse" color-interpolation-filters="sRGB">
<feFlood flood-opacity="0" result="BackgroundImageFix"/>
<feColorMatrix in="SourceAlpha" type="matrix" values="0 0 0 0 0 0 0 0 0 0 0 0 0 0 0 0 0 0 127 0" result="hardAlpha"/>
<feOffset dy="2"/>
<feGaussianBlur stdDeviation="16.5"/>
<feComposite in2="hardAlpha" operator="out"/>
<feColorMatrix type="matrix" values="0 0 0 0 0 0 0 0 0 0 0 0 0 0 0 0 0 0 0.09 0"/>
<feBlend mode="normal" in2="BackgroundImageFix" result="effect1_dropShadow_8_3991"/>
<feBlend mode="normal" in="SourceGraphic" in2="effect1_dropShadow_8_3991" result="shape"/>
</filter>
</defs>
</svg>
