<svg width="25" height="25" viewBox="0 0 25 25" fill="none" xmlns="http://www.w3.org/2000/svg">
<path d="M12.4245 21.7536L4.18364 13.5031C3.09071 12.4091 2.47665 10.9251 2.47656 9.37775C2.47647 7.83039 3.09035 6.34637 4.18315 5.25216C5.27595 4.15795 6.75816 3.54317 8.30371 3.54308C9.84925 3.54299 11.3315 4.15759 12.4245 5.25167C13.5179 4.15883 14.9998 3.54503 16.5449 3.54503C18.0899 3.54503 19.5718 4.15883 20.6653 5.25167V5.25167C21.7564 6.34666 22.3691 7.83022 22.3691 9.37692C22.3691 10.9236 21.7564 12.4072 20.6653 13.5022L12.4245 21.7536ZM8.30357 5.48796C7.53513 5.48793 6.78394 5.71606 6.14502 6.1435C5.50609 6.57093 5.00814 7.17847 4.71413 7.88928C4.42012 8.60008 4.34326 9.38221 4.49329 10.1367C4.64331 10.8913 5.01347 11.5843 5.55695 12.1282L12.4245 19.0038L19.292 12.1282C19.6864 11.7421 19.9942 11.2763 20.1949 10.7618C20.3955 10.2473 20.4844 9.69598 20.4557 9.14443C20.4269 8.59287 20.2812 8.05377 20.0281 7.563C19.7751 7.07223 19.4205 6.64105 18.988 6.29814C18.5556 5.95524 18.0551 5.70847 17.52 5.57428C16.9849 5.44008 16.4273 5.42152 15.8845 5.51984C15.3416 5.61815 14.8259 5.83109 14.3717 6.14449C13.9174 6.45788 13.5351 6.86453 13.25 7.33739L12.4245 8.67147L11.5989 7.33739C11.2581 6.76859 10.7748 6.29886 10.1967 5.97479C9.61866 5.65072 8.96604 5.48356 8.30357 5.4899V5.48796Z" fill="black"/>
</svg>
