<svg width="203" height="50" viewBox="0 0 203 50" fill="none" xmlns="http://www.w3.org/2000/svg">
<mask id="mask0_67_391" style="mask-type:alpha" maskUnits="userSpaceOnUse" x="0" y="16" width="39" height="34">
<ellipse cx="33.2713" cy="43.8558" rx="4.86892" ry="5.49785" fill="#D9D9D9"/>
<ellipse cx="17.0408" cy="43.8558" rx="4.86892" ry="5.49785" fill="#D9D9D9"/>
<path d="M9.73808 16.3658L15.5697 31.4574L38.291 31.3368L38.3139 36.8351L12.3467 36.9728L7.30307 21.8643L8.92601 18.1979L9.73808 16.3658Z" fill="#D9D9D9"/>
<path d="M1.62297 22.0399H7.30338L9.73784 16.3667H0V22.0399H1.62297Z" fill="#D9D9D9"/>
</mask>
<g mask="url(#mask0_67_391)">
<rect x="-5.28809" y="6.34082" width="60.8129" height="44.1449" fill="#37475A"/>
</g>
<path d="M47.8 31.2C46.32 31.2 45.1467 30.7733 44.28 29.92C43.4133 29.0667 42.9467 27.8533 42.88 26.28C42.8667 26.1467 42.86 25.98 42.86 25.78C42.86 25.5667 42.8667 25.4 42.88 25.28C42.9333 24.28 43.16 23.4133 43.56 22.68C43.9733 21.9467 44.54 21.3867 45.26 21C45.98 20.6 46.8267 20.4 47.8 20.4C48.88 20.4 49.7867 20.6267 50.52 21.08C51.2533 21.52 51.8067 22.14 52.18 22.94C52.5533 23.7267 52.74 24.64 52.74 25.68V26.1C52.74 26.2333 52.6933 26.3467 52.6 26.44C52.5067 26.5333 52.3867 26.58 52.24 26.58H45.6C45.6 26.58 45.6 26.6 45.6 26.64C45.6 26.68 45.6 26.7133 45.6 26.74C45.6133 27.2067 45.7 27.64 45.86 28.04C46.0333 28.4267 46.28 28.74 46.6 28.98C46.9333 29.22 47.3267 29.34 47.78 29.34C48.1533 29.34 48.4667 29.2867 48.72 29.18C48.9733 29.06 49.18 28.9267 49.34 28.78C49.5 28.6333 49.6133 28.5133 49.68 28.42C49.8 28.26 49.8933 28.1667 49.96 28.14C50.04 28.1 50.1533 28.08 50.3 28.08H52.02C52.1533 28.08 52.26 28.12 52.34 28.2C52.4333 28.28 52.4733 28.38 52.46 28.5C52.4467 28.7133 52.3333 28.9733 52.12 29.28C51.92 29.5867 51.6267 29.8867 51.24 30.18C50.8533 30.4733 50.3667 30.72 49.78 30.92C49.2067 31.1067 48.5467 31.2 47.8 31.2ZM45.6 24.9H50.02V24.84C50.02 24.32 49.9333 23.8667 49.76 23.48C49.5867 23.0933 49.3333 22.7867 49 22.56C48.6667 22.3333 48.2667 22.22 47.8 22.22C47.3333 22.22 46.9333 22.3333 46.6 22.56C46.2667 22.7867 46.0133 23.0933 45.84 23.48C45.68 23.8667 45.6 24.32 45.6 24.84V24.9ZM58.803 31.2C58.003 31.2 57.3163 31.1067 56.743 30.92C56.183 30.7333 55.723 30.5 55.363 30.22C55.003 29.94 54.7363 29.66 54.563 29.38C54.3896 29.1 54.2963 28.8667 54.283 28.68C54.2696 28.5333 54.3096 28.42 54.403 28.34C54.5096 28.2467 54.623 28.2 54.743 28.2H56.323C56.3763 28.2 56.423 28.2067 56.463 28.22C56.503 28.2333 56.5563 28.2733 56.623 28.34C56.7963 28.4867 56.9763 28.64 57.163 28.8C57.363 28.96 57.5963 29.1 57.863 29.22C58.1296 29.3267 58.463 29.38 58.863 29.38C59.383 29.38 59.8163 29.28 60.163 29.08C60.523 28.8667 60.703 28.5667 60.703 28.18C60.703 27.9 60.623 27.6733 60.463 27.5C60.3163 27.3267 60.0363 27.1733 59.623 27.04C59.2096 26.8933 58.623 26.74 57.863 26.58C57.1163 26.4067 56.4963 26.1867 56.003 25.92C55.5096 25.6533 55.143 25.32 54.903 24.92C54.663 24.52 54.543 24.0533 54.543 23.52C54.543 23 54.6963 22.5067 55.003 22.04C55.323 21.56 55.7896 21.1667 56.403 20.86C57.0296 20.5533 57.803 20.4 58.723 20.4C59.443 20.4 60.0696 20.4933 60.603 20.68C61.1363 20.8533 61.5763 21.0733 61.923 21.34C62.283 21.6067 62.5563 21.88 62.743 22.16C62.9296 22.4267 63.0296 22.66 63.043 22.86C63.0563 23.0067 63.0163 23.1267 62.923 23.22C62.8296 23.3 62.723 23.34 62.603 23.34H61.123C61.0563 23.34 60.9963 23.3267 60.943 23.3C60.8896 23.2733 60.8363 23.24 60.783 23.2C60.6363 23.0667 60.4763 22.9267 60.303 22.78C60.1296 22.6333 59.9163 22.5067 59.663 22.4C59.423 22.28 59.103 22.22 58.703 22.22C58.1963 22.22 57.8096 22.3333 57.543 22.56C57.2763 22.7733 57.143 23.0467 57.143 23.38C57.143 23.6067 57.203 23.8067 57.323 23.98C57.4563 24.14 57.7163 24.2933 58.103 24.44C58.4896 24.5867 59.0763 24.74 59.863 24.9C60.7563 25.06 61.463 25.3 61.983 25.62C62.5163 25.9267 62.8896 26.2867 63.103 26.7C63.3296 27.1 63.443 27.5467 63.443 28.04C63.443 28.64 63.263 29.18 62.903 29.66C62.5563 30.14 62.0363 30.52 61.343 30.8C60.663 31.0667 59.8163 31.2 58.803 31.2ZM70.1684 31C69.3684 31 68.6951 30.86 68.1484 30.58C67.6018 30.3 67.1951 29.8867 66.9284 29.34C66.6618 28.78 66.5284 28.0867 66.5284 27.26V22.72H64.9484C64.8151 22.72 64.7018 22.6733 64.6084 22.58C64.5151 22.4867 64.4684 22.3733 64.4684 22.24V21.08C64.4684 20.9467 64.5151 20.8333 64.6084 20.74C64.7018 20.6467 64.8151 20.6 64.9484 20.6H66.5284V17.28C66.5284 17.1467 66.5684 17.0333 66.6484 16.94C66.7418 16.8467 66.8618 16.8 67.0084 16.8H68.6284C68.7618 16.8 68.8751 16.8467 68.9684 16.94C69.0618 17.0333 69.1084 17.1467 69.1084 17.28V20.6H71.6084C71.7418 20.6 71.8551 20.6467 71.9484 20.74C72.0418 20.8333 72.0884 20.9467 72.0884 21.08V22.24C72.0884 22.3733 72.0418 22.4867 71.9484 22.58C71.8551 22.6733 71.7418 22.72 71.6084 22.72H69.1084V27.06C69.1084 27.6067 69.2018 28.0333 69.3884 28.34C69.5884 28.6467 69.9284 28.8 70.4084 28.8H71.7884C71.9218 28.8 72.0351 28.8467 72.1284 28.94C72.2218 29.0333 72.2684 29.1467 72.2684 29.28V30.52C72.2684 30.6533 72.2218 30.7667 72.1284 30.86C72.0351 30.9533 71.9218 31 71.7884 31H70.1684ZM74.5227 31C74.3893 31 74.276 30.9533 74.1827 30.86C74.0893 30.7667 74.0427 30.6533 74.0427 30.52V21.1C74.0427 20.9533 74.0893 20.8333 74.1827 20.74C74.276 20.6467 74.3893 20.6 74.5227 20.6H76.1427C76.276 20.6 76.3893 20.6467 76.4827 20.74C76.5893 20.8333 76.6427 20.9533 76.6427 21.1V21.92C76.9493 21.4933 77.3427 21.1667 77.8227 20.94C78.316 20.7133 78.8827 20.6 79.5227 20.6H80.3427C80.4893 20.6 80.6027 20.6467 80.6827 20.74C80.776 20.8333 80.8227 20.9467 80.8227 21.08V22.52C80.8227 22.6533 80.776 22.7667 80.6827 22.86C80.6027 22.9533 80.4893 23 80.3427 23H78.7827C78.1427 23 77.6427 23.18 77.2827 23.54C76.936 23.9 76.7627 24.3933 76.7627 25.02V30.52C76.7627 30.6533 76.716 30.7667 76.6227 30.86C76.5293 30.9533 76.4093 31 76.2627 31H74.5227ZM86.2425 31.2C85.4292 31.2 84.7225 31.02 84.1225 30.66C83.5358 30.2867 83.0825 29.7667 82.7625 29.1C82.4425 28.42 82.2825 27.62 82.2825 26.7V21.08C82.2825 20.9467 82.3292 20.8333 82.4225 20.74C82.5158 20.6467 82.6292 20.6 82.7625 20.6H84.5225C84.6692 20.6 84.7825 20.6467 84.8625 20.74C84.9558 20.8333 85.0025 20.9467 85.0025 21.08V26.58C85.0025 28.2333 85.7292 29.06 87.1825 29.06C87.8758 29.06 88.4225 28.84 88.8225 28.4C89.2358 27.96 89.4425 27.3533 89.4425 26.58V21.08C89.4425 20.9467 89.4892 20.8333 89.5825 20.74C89.6758 20.6467 89.7892 20.6 89.9225 20.6H91.6825C91.8158 20.6 91.9292 20.6467 92.0225 20.74C92.1158 20.8333 92.1625 20.9467 92.1625 21.08V30.52C92.1625 30.6533 92.1158 30.7667 92.0225 30.86C91.9292 30.9533 91.8158 31 91.6825 31H90.0625C89.9158 31 89.7958 30.9533 89.7025 30.86C89.6225 30.7667 89.5825 30.6533 89.5825 30.52V29.7C89.2225 30.1667 88.7758 30.5333 88.2425 30.8C87.7092 31.0667 87.0425 31.2 86.2425 31.2ZM99.3044 31.2C98.3444 31.2 97.4977 31.02 96.7644 30.66C96.0444 30.3 95.4777 29.78 95.0644 29.1C94.6644 28.4067 94.4444 27.5733 94.4044 26.6C94.391 26.4 94.3844 26.14 94.3844 25.82C94.3844 25.4867 94.391 25.2133 94.4044 25C94.4444 24.0267 94.6644 23.2 95.0644 22.52C95.4777 21.8267 96.0444 21.3 96.7644 20.94C97.4977 20.58 98.3444 20.4 99.3044 20.4C100.158 20.4 100.884 20.52 101.484 20.76C102.084 21 102.578 21.3 102.964 21.66C103.351 22.02 103.638 22.4 103.824 22.8C104.024 23.1867 104.131 23.54 104.144 23.86C104.158 24.0067 104.111 24.1267 104.004 24.22C103.911 24.3 103.798 24.34 103.664 24.34H101.904C101.771 24.34 101.664 24.3067 101.584 24.24C101.518 24.1733 101.451 24.0733 101.384 23.94C101.184 23.4067 100.918 23.0333 100.584 22.82C100.264 22.5933 99.851 22.48 99.3444 22.48C98.6777 22.48 98.1444 22.6933 97.7444 23.12C97.3577 23.5333 97.151 24.1933 97.1244 25.1C97.0977 25.6067 97.0977 26.0733 97.1244 26.5C97.151 27.42 97.3577 28.0867 97.7444 28.5C98.1444 28.9133 98.6777 29.12 99.3444 29.12C99.8644 29.12 100.284 29.0133 100.604 28.8C100.924 28.5733 101.184 28.1933 101.384 27.66C101.451 27.5267 101.518 27.4267 101.584 27.36C101.664 27.2933 101.771 27.26 101.904 27.26H103.664C103.798 27.26 103.911 27.3067 104.004 27.4C104.111 27.48 104.158 27.5933 104.144 27.74C104.131 27.98 104.064 28.2533 103.944 28.56C103.838 28.8533 103.658 29.16 103.404 29.48C103.164 29.7867 102.858 30.0733 102.484 30.34C102.111 30.5933 101.658 30.8 101.124 30.96C100.604 31.12 99.9977 31.2 99.3044 31.2ZM110.93 31C110.13 31 109.457 30.86 108.91 30.58C108.363 30.3 107.957 29.8867 107.69 29.34C107.423 28.78 107.29 28.0867 107.29 27.26V22.72H105.71C105.577 22.72 105.463 22.6733 105.37 22.58C105.277 22.4867 105.23 22.3733 105.23 22.24V21.08C105.23 20.9467 105.277 20.8333 105.37 20.74C105.463 20.6467 105.577 20.6 105.71 20.6H107.29V17.28C107.29 17.1467 107.33 17.0333 107.41 16.94C107.503 16.8467 107.623 16.8 107.77 16.8H109.39C109.523 16.8 109.637 16.8467 109.73 16.94C109.823 17.0333 109.87 17.1467 109.87 17.28V20.6H112.37C112.503 20.6 112.617 20.6467 112.71 20.74C112.803 20.8333 112.85 20.9467 112.85 21.08V22.24C112.85 22.3733 112.803 22.4867 112.71 22.58C112.617 22.6733 112.503 22.72 112.37 22.72H109.87V27.06C109.87 27.6067 109.963 28.0333 110.15 28.34C110.35 28.6467 110.69 28.8 111.17 28.8H112.55C112.683 28.8 112.797 28.8467 112.89 28.94C112.983 29.0333 113.03 29.1467 113.03 29.28V30.52C113.03 30.6533 112.983 30.7667 112.89 30.86C112.797 30.9533 112.683 31 112.55 31H110.93ZM119.404 31.2C118.338 31.2 117.438 31.0133 116.704 30.64C115.984 30.2667 115.431 29.74 115.044 29.06C114.671 28.38 114.458 27.5867 114.404 26.68C114.391 26.44 114.384 26.1467 114.384 25.8C114.384 25.4533 114.391 25.16 114.404 24.92C114.458 24 114.678 23.2067 115.064 22.54C115.464 21.86 116.024 21.3333 116.744 20.96C117.478 20.5867 118.364 20.4 119.404 20.4C120.444 20.4 121.324 20.5867 122.044 20.96C122.778 21.3333 123.338 21.86 123.724 22.54C124.124 23.2067 124.351 24 124.404 24.92C124.418 25.16 124.424 25.4533 124.424 25.8C124.424 26.1467 124.418 26.44 124.404 26.68C124.351 27.5867 124.131 28.38 123.744 29.06C123.371 29.74 122.818 30.2667 122.084 30.64C121.364 31.0133 120.471 31.2 119.404 31.2ZM119.404 29.22C120.111 29.22 120.658 29 121.044 28.56C121.431 28.1067 121.644 27.4467 121.684 26.58C121.698 26.38 121.704 26.12 121.704 25.8C121.704 25.48 121.698 25.22 121.684 25.02C121.644 24.1667 121.431 23.5133 121.044 23.06C120.658 22.6067 120.111 22.38 119.404 22.38C118.698 22.38 118.151 22.6067 117.764 23.06C117.378 23.5133 117.164 24.1667 117.124 25.02C117.111 25.22 117.104 25.48 117.104 25.8C117.104 26.12 117.111 26.38 117.124 26.58C117.164 27.4467 117.378 28.1067 117.764 28.56C118.151 29 118.698 29.22 119.404 29.22ZM127.12 31C126.987 31 126.874 30.9533 126.78 30.86C126.687 30.7667 126.64 30.6533 126.64 30.52V21.1C126.64 20.9533 126.687 20.8333 126.78 20.74C126.874 20.6467 126.987 20.6 127.12 20.6H128.74C128.874 20.6 128.987 20.6467 129.08 20.74C129.187 20.8333 129.24 20.9533 129.24 21.1V21.92C129.547 21.4933 129.94 21.1667 130.42 20.94C130.914 20.7133 131.48 20.6 132.12 20.6H132.94C133.087 20.6 133.2 20.6467 133.28 20.74C133.374 20.8333 133.42 20.9467 133.42 21.08V22.52C133.42 22.6533 133.374 22.7667 133.28 22.86C133.2 22.9533 133.087 23 132.94 23H131.38C130.74 23 130.24 23.18 129.88 23.54C129.534 23.9 129.36 24.3933 129.36 25.02V30.52C129.36 30.6533 129.314 30.7667 129.22 30.86C129.127 30.9533 129.007 31 128.86 31H127.12ZM138.92 31.2C138.12 31.2 137.433 31.1067 136.86 30.92C136.3 30.7333 135.84 30.5 135.48 30.22C135.12 29.94 134.853 29.66 134.68 29.38C134.507 29.1 134.413 28.8667 134.4 28.68C134.387 28.5333 134.427 28.42 134.52 28.34C134.627 28.2467 134.74 28.2 134.86 28.2H136.44C136.493 28.2 136.54 28.2067 136.58 28.22C136.62 28.2333 136.673 28.2733 136.74 28.34C136.913 28.4867 137.093 28.64 137.28 28.8C137.48 28.96 137.713 29.1 137.98 29.22C138.247 29.3267 138.58 29.38 138.98 29.38C139.5 29.38 139.933 29.28 140.28 29.08C140.64 28.8667 140.82 28.5667 140.82 28.18C140.82 27.9 140.74 27.6733 140.58 27.5C140.433 27.3267 140.153 27.1733 139.74 27.04C139.327 26.8933 138.74 26.74 137.98 26.58C137.233 26.4067 136.613 26.1867 136.12 25.92C135.627 25.6533 135.26 25.32 135.02 24.92C134.78 24.52 134.66 24.0533 134.66 23.52C134.66 23 134.813 22.5067 135.12 22.04C135.44 21.56 135.907 21.1667 136.52 20.86C137.147 20.5533 137.92 20.4 138.84 20.4C139.56 20.4 140.187 20.4933 140.72 20.68C141.253 20.8533 141.693 21.0733 142.04 21.34C142.4 21.6067 142.673 21.88 142.86 22.16C143.047 22.4267 143.147 22.66 143.16 22.86C143.173 23.0067 143.133 23.1267 143.04 23.22C142.947 23.3 142.84 23.34 142.72 23.34H141.24C141.173 23.34 141.113 23.3267 141.06 23.3C141.007 23.2733 140.953 23.24 140.9 23.2C140.753 23.0667 140.593 22.9267 140.42 22.78C140.247 22.6333 140.033 22.5067 139.78 22.4C139.54 22.28 139.22 22.22 138.82 22.22C138.313 22.22 137.927 22.3333 137.66 22.56C137.393 22.7733 137.26 23.0467 137.26 23.38C137.26 23.6067 137.32 23.8067 137.44 23.98C137.573 24.14 137.833 24.2933 138.22 24.44C138.607 24.5867 139.193 24.74 139.98 24.9C140.873 25.06 141.58 25.3 142.1 25.62C142.633 25.9267 143.007 26.2867 143.22 26.7C143.447 27.1 143.56 27.5467 143.56 28.04C143.56 28.64 143.38 29.18 143.02 29.66C142.673 30.14 142.153 30.52 141.46 30.8C140.78 31.0667 139.933 31.2 138.92 31.2Z" fill="#555555"/>
<path d="M17.9238 28.8231C18.6847 28.8759 19.2285 28.7714 19.5553 28.5094C19.8854 28.2277 20.1043 27.8216 20.2121 27.2913C20.343 26.7436 20.4655 26.1245 20.5795 25.4338L22.6902 12.6468C22.7553 12.2522 22.8272 11.8785 22.9056 11.5257C22.9874 11.1532 23.0626 10.8202 23.1313 10.5266C22.7707 10.5026 22.4101 10.4786 22.0495 10.4546C21.6889 10.4306 21.3284 10.4066 20.9678 10.3826L21.1827 9.08026L28.2152 9.91066C30.0019 10.1293 31.6055 10.5369 33.0259 11.1335C34.4464 11.7301 35.621 12.5281 36.5497 13.5276C37.5015 14.5097 38.1561 15.697 38.5136 17.0896C38.8942 18.4649 38.9379 20.0405 38.6447 21.8164C38.42 23.178 37.9668 24.4512 37.2851 25.6361C36.6035 26.821 35.7064 27.8386 34.5939 28.6889C33.4846 29.5194 32.1681 30.1334 30.6443 30.5307C29.1436 30.9108 27.4602 30.9866 25.5942 30.7583L17.7626 29.7999L17.9238 28.8231ZM22.9845 26.8756C22.8965 27.4084 22.8117 27.861 22.7299 28.2335C22.6681 28.6085 22.5961 28.9218 22.514 29.1734C23.0468 29.2588 23.5299 29.338 23.9634 29.4112C24.42 29.4671 24.7972 29.5132 25.0949 29.5497C25.4126 29.5885 25.6111 29.6128 25.6905 29.6226C26.9809 29.7805 28.1813 29.6858 29.2918 29.3385C30.4221 28.9937 31.4229 28.4518 32.2942 27.7129C33.1887 26.9567 33.9273 26.0405 34.51 24.9643C35.1158 23.8708 35.5278 22.663 35.746 21.3409C36.0555 19.4663 35.9752 17.8057 35.5051 16.3591C35.0581 14.8952 34.1918 13.702 32.9061 12.7797C31.6237 11.8376 29.8906 11.233 27.7069 10.9658C26.9723 10.8759 26.4318 10.9607 26.0851 11.2203C25.7583 11.4822 25.5311 11.8772 25.4035 12.4051C25.2957 12.9355 25.1831 13.5559 25.0659 14.2662L22.9845 26.8756Z" fill="#2D719D"/>
</svg>
