<svg width="120" height="65" viewBox="0 0 144 65" fill="none" xmlns="http://www.w3.org/2000/svg">
<mask id="mask0_1156_377" style="mask-type:alpha" maskUnits="userSpaceOnUse" x="0" y="12" width="36" height="53">
<ellipse cx="30.7117" cy="56.3163" rx="4.49439" ry="8.68395" fill="#D9D9D9"/>
<ellipse cx="15.7301" cy="56.3163" rx="4.49439" ry="8.68395" fill="#D9D9D9"/>
<path d="M8.98911 12.896L14.3722 36.7335L35.3457 36.5431L35.3668 45.2277L11.3971 45.4452L6.74141 21.581L8.2395 15.7899L8.98911 12.896Z" fill="#D9D9D9"/>
<path d="M1.49813 21.8579H6.74158L8.98878 12.897H0V21.8579H1.49813Z" fill="#D9D9D9"/>
</mask>
<g mask="url(#mask0_1156_377)">
<rect x="-4.8811" y="-2.93848" width="56.135" height="69.7276" fill="#37475A"/>
</g>
<path d="M46.8 34.2C45.32 34.2 44.1467 33.7733 43.28 32.92C42.4133 32.0667 41.9467 30.8533 41.88 29.28C41.8667 29.1467 41.86 28.98 41.86 28.78C41.86 28.5667 41.8667 28.4 41.88 28.28C41.9333 27.28 42.16 26.4133 42.56 25.68C42.9733 24.9467 43.54 24.3867 44.26 24C44.98 23.6 45.8267 23.4 46.8 23.4C47.88 23.4 48.7867 23.6267 49.52 24.08C50.2533 24.52 50.8067 25.14 51.18 25.94C51.5533 26.7267 51.74 27.64 51.74 28.68V29.1C51.74 29.2333 51.6933 29.3467 51.6 29.44C51.5067 29.5333 51.3867 29.58 51.24 29.58H44.6C44.6 29.58 44.6 29.6 44.6 29.64C44.6 29.68 44.6 29.7133 44.6 29.74C44.6133 30.2067 44.7 30.64 44.86 31.04C45.0333 31.4267 45.28 31.74 45.6 31.98C45.9333 32.22 46.3267 32.34 46.78 32.34C47.1533 32.34 47.4667 32.2867 47.72 32.18C47.9733 32.06 48.18 31.9267 48.34 31.78C48.5 31.6333 48.6133 31.5133 48.68 31.42C48.8 31.26 48.8933 31.1667 48.96 31.14C49.04 31.1 49.1533 31.08 49.3 31.08H51.02C51.1533 31.08 51.26 31.12 51.34 31.2C51.4333 31.28 51.4733 31.38 51.46 31.5C51.4467 31.7133 51.3333 31.9733 51.12 32.28C50.92 32.5867 50.6267 32.8867 50.24 33.18C49.8533 33.4733 49.3667 33.72 48.78 33.92C48.2067 34.1067 47.5467 34.2 46.8 34.2ZM44.6 27.9H49.02V27.84C49.02 27.32 48.9333 26.8667 48.76 26.48C48.5867 26.0933 48.3333 25.7867 48 25.56C47.6667 25.3333 47.2667 25.22 46.8 25.22C46.3333 25.22 45.9333 25.3333 45.6 25.56C45.2667 25.7867 45.0133 26.0933 44.84 26.48C44.68 26.8667 44.6 27.32 44.6 27.84V27.9ZM57.803 34.2C57.003 34.2 56.3163 34.1067 55.743 33.92C55.183 33.7333 54.723 33.5 54.363 33.22C54.003 32.94 53.7363 32.66 53.563 32.38C53.3896 32.1 53.2963 31.8667 53.283 31.68C53.2696 31.5333 53.3096 31.42 53.403 31.34C53.5096 31.2467 53.623 31.2 53.743 31.2H55.323C55.3763 31.2 55.423 31.2067 55.463 31.22C55.503 31.2333 55.5563 31.2733 55.623 31.34C55.7963 31.4867 55.9763 31.64 56.163 31.8C56.363 31.96 56.5963 32.1 56.863 32.22C57.1296 32.3267 57.463 32.38 57.863 32.38C58.383 32.38 58.8163 32.28 59.163 32.08C59.523 31.8667 59.703 31.5667 59.703 31.18C59.703 30.9 59.623 30.6733 59.463 30.5C59.3163 30.3267 59.0363 30.1733 58.623 30.04C58.2096 29.8933 57.623 29.74 56.863 29.58C56.1163 29.4067 55.4963 29.1867 55.003 28.92C54.5096 28.6533 54.143 28.32 53.903 27.92C53.663 27.52 53.543 27.0533 53.543 26.52C53.543 26 53.6963 25.5067 54.003 25.04C54.323 24.56 54.7896 24.1667 55.403 23.86C56.0296 23.5533 56.803 23.4 57.723 23.4C58.443 23.4 59.0696 23.4933 59.603 23.68C60.1363 23.8533 60.5763 24.0733 60.923 24.34C61.283 24.6067 61.5563 24.88 61.743 25.16C61.9296 25.4267 62.0296 25.66 62.043 25.86C62.0563 26.0067 62.0163 26.1267 61.923 26.22C61.8296 26.3 61.723 26.34 61.603 26.34H60.123C60.0563 26.34 59.9963 26.3267 59.943 26.3C59.8896 26.2733 59.8363 26.24 59.783 26.2C59.6363 26.0667 59.4763 25.9267 59.303 25.78C59.1296 25.6333 58.9163 25.5067 58.663 25.4C58.423 25.28 58.103 25.22 57.703 25.22C57.1963 25.22 56.8096 25.3333 56.543 25.56C56.2763 25.7733 56.143 26.0467 56.143 26.38C56.143 26.6067 56.203 26.8067 56.323 26.98C56.4563 27.14 56.7163 27.2933 57.103 27.44C57.4896 27.5867 58.0763 27.74 58.863 27.9C59.7563 28.06 60.463 28.3 60.983 28.62C61.5163 28.9267 61.8896 29.2867 62.103 29.7C62.3296 30.1 62.443 30.5467 62.443 31.04C62.443 31.64 62.263 32.18 61.903 32.66C61.5563 33.14 61.0363 33.52 60.343 33.8C59.663 34.0667 58.8163 34.2 57.803 34.2ZM69.1684 34C68.3684 34 67.6951 33.86 67.1484 33.58C66.6018 33.3 66.1951 32.8867 65.9284 32.34C65.6618 31.78 65.5284 31.0867 65.5284 30.26V25.72H63.9484C63.8151 25.72 63.7018 25.6733 63.6084 25.58C63.5151 25.4867 63.4684 25.3733 63.4684 25.24V24.08C63.4684 23.9467 63.5151 23.8333 63.6084 23.74C63.7018 23.6467 63.8151 23.6 63.9484 23.6H65.5284V20.28C65.5284 20.1467 65.5684 20.0333 65.6484 19.94C65.7418 19.8467 65.8618 19.8 66.0084 19.8H67.6284C67.7618 19.8 67.8751 19.8467 67.9684 19.94C68.0618 20.0333 68.1084 20.1467 68.1084 20.28V23.6H70.6084C70.7418 23.6 70.8551 23.6467 70.9484 23.74C71.0418 23.8333 71.0884 23.9467 71.0884 24.08V25.24C71.0884 25.3733 71.0418 25.4867 70.9484 25.58C70.8551 25.6733 70.7418 25.72 70.6084 25.72H68.1084V30.06C68.1084 30.6067 68.2018 31.0333 68.3884 31.34C68.5884 31.6467 68.9284 31.8 69.4084 31.8H70.7884C70.9218 31.8 71.0351 31.8467 71.1284 31.94C71.2218 32.0333 71.2684 32.1467 71.2684 32.28V33.52C71.2684 33.6533 71.2218 33.7667 71.1284 33.86C71.0351 33.9533 70.9218 34 70.7884 34H69.1684ZM73.5227 34C73.3893 34 73.276 33.9533 73.1827 33.86C73.0893 33.7667 73.0427 33.6533 73.0427 33.52V24.1C73.0427 23.9533 73.0893 23.8333 73.1827 23.74C73.276 23.6467 73.3893 23.6 73.5227 23.6H75.1427C75.276 23.6 75.3893 23.6467 75.4827 23.74C75.5893 23.8333 75.6427 23.9533 75.6427 24.1V24.92C75.9493 24.4933 76.3427 24.1667 76.8227 23.94C77.316 23.7133 77.8827 23.6 78.5227 23.6H79.3427C79.4893 23.6 79.6027 23.6467 79.6827 23.74C79.776 23.8333 79.8227 23.9467 79.8227 24.08V25.52C79.8227 25.6533 79.776 25.7667 79.6827 25.86C79.6027 25.9533 79.4893 26 79.3427 26H77.7827C77.1427 26 76.6427 26.18 76.2827 26.54C75.936 26.9 75.7627 27.3933 75.7627 28.02V33.52C75.7627 33.6533 75.716 33.7667 75.6227 33.86C75.5293 33.9533 75.4093 34 75.2627 34H73.5227ZM85.2425 34.2C84.4292 34.2 83.7225 34.02 83.1225 33.66C82.5358 33.2867 82.0825 32.7667 81.7625 32.1C81.4425 31.42 81.2825 30.62 81.2825 29.7V24.08C81.2825 23.9467 81.3292 23.8333 81.4225 23.74C81.5158 23.6467 81.6292 23.6 81.7625 23.6H83.5225C83.6692 23.6 83.7825 23.6467 83.8625 23.74C83.9558 23.8333 84.0025 23.9467 84.0025 24.08V29.58C84.0025 31.2333 84.7292 32.06 86.1825 32.06C86.8758 32.06 87.4225 31.84 87.8225 31.4C88.2358 30.96 88.4425 30.3533 88.4425 29.58V24.08C88.4425 23.9467 88.4892 23.8333 88.5825 23.74C88.6758 23.6467 88.7892 23.6 88.9225 23.6H90.6825C90.8158 23.6 90.9292 23.6467 91.0225 23.74C91.1158 23.8333 91.1625 23.9467 91.1625 24.08V33.52C91.1625 33.6533 91.1158 33.7667 91.0225 33.86C90.9292 33.9533 90.8158 34 90.6825 34H89.0625C88.9158 34 88.7958 33.9533 88.7025 33.86C88.6225 33.7667 88.5825 33.6533 88.5825 33.52V32.7C88.2225 33.1667 87.7758 33.5333 87.2425 33.8C86.7092 34.0667 86.0425 34.2 85.2425 34.2ZM98.3044 34.2C97.3444 34.2 96.4977 34.02 95.7644 33.66C95.0444 33.3 94.4777 32.78 94.0644 32.1C93.6644 31.4067 93.4444 30.5733 93.4044 29.6C93.391 29.4 93.3844 29.14 93.3844 28.82C93.3844 28.4867 93.391 28.2133 93.4044 28C93.4444 27.0267 93.6644 26.2 94.0644 25.52C94.4777 24.8267 95.0444 24.3 95.7644 23.94C96.4977 23.58 97.3444 23.4 98.3044 23.4C99.1577 23.4 99.8844 23.52 100.484 23.76C101.084 24 101.578 24.3 101.964 24.66C102.351 25.02 102.638 25.4 102.824 25.8C103.024 26.1867 103.131 26.54 103.144 26.86C103.158 27.0067 103.111 27.1267 103.004 27.22C102.911 27.3 102.798 27.34 102.664 27.34H100.904C100.771 27.34 100.664 27.3067 100.584 27.24C100.518 27.1733 100.451 27.0733 100.384 26.94C100.184 26.4067 99.9177 26.0333 99.5844 25.82C99.2644 25.5933 98.851 25.48 98.3444 25.48C97.6777 25.48 97.1444 25.6933 96.7444 26.12C96.3577 26.5333 96.151 27.1933 96.1244 28.1C96.0977 28.6067 96.0977 29.0733 96.1244 29.5C96.151 30.42 96.3577 31.0867 96.7444 31.5C97.1444 31.9133 97.6777 32.12 98.3444 32.12C98.8644 32.12 99.2844 32.0133 99.6044 31.8C99.9244 31.5733 100.184 31.1933 100.384 30.66C100.451 30.5267 100.518 30.4267 100.584 30.36C100.664 30.2933 100.771 30.26 100.904 30.26H102.664C102.798 30.26 102.911 30.3067 103.004 30.4C103.111 30.48 103.158 30.5933 103.144 30.74C103.131 30.98 103.064 31.2533 102.944 31.56C102.838 31.8533 102.658 32.16 102.404 32.48C102.164 32.7867 101.858 33.0733 101.484 33.34C101.111 33.5933 100.658 33.8 100.124 33.96C99.6044 34.12 98.9977 34.2 98.3044 34.2ZM109.93 34C109.13 34 108.457 33.86 107.91 33.58C107.363 33.3 106.957 32.8867 106.69 32.34C106.423 31.78 106.29 31.0867 106.29 30.26V25.72H104.71C104.577 25.72 104.463 25.6733 104.37 25.58C104.277 25.4867 104.23 25.3733 104.23 25.24V24.08C104.23 23.9467 104.277 23.8333 104.37 23.74C104.463 23.6467 104.577 23.6 104.71 23.6H106.29V20.28C106.29 20.1467 106.33 20.0333 106.41 19.94C106.503 19.8467 106.623 19.8 106.77 19.8H108.39C108.523 19.8 108.637 19.8467 108.73 19.94C108.823 20.0333 108.87 20.1467 108.87 20.28V23.6H111.37C111.503 23.6 111.617 23.6467 111.71 23.74C111.803 23.8333 111.85 23.9467 111.85 24.08V25.24C111.85 25.3733 111.803 25.4867 111.71 25.58C111.617 25.6733 111.503 25.72 111.37 25.72H108.87V30.06C108.87 30.6067 108.963 31.0333 109.15 31.34C109.35 31.6467 109.69 31.8 110.17 31.8H111.55C111.683 31.8 111.797 31.8467 111.89 31.94C111.983 32.0333 112.03 32.1467 112.03 32.28V33.52C112.03 33.6533 111.983 33.7667 111.89 33.86C111.797 33.9533 111.683 34 111.55 34H109.93ZM118.404 34.2C117.338 34.2 116.438 34.0133 115.704 33.64C114.984 33.2667 114.431 32.74 114.044 32.06C113.671 31.38 113.458 30.5867 113.404 29.68C113.391 29.44 113.384 29.1467 113.384 28.8C113.384 28.4533 113.391 28.16 113.404 27.92C113.458 27 113.678 26.2067 114.064 25.54C114.464 24.86 115.024 24.3333 115.744 23.96C116.478 23.5867 117.364 23.4 118.404 23.4C119.444 23.4 120.324 23.5867 121.044 23.96C121.778 24.3333 122.338 24.86 122.724 25.54C123.124 26.2067 123.351 27 123.404 27.92C123.418 28.16 123.424 28.4533 123.424 28.8C123.424 29.1467 123.418 29.44 123.404 29.68C123.351 30.5867 123.131 31.38 122.744 32.06C122.371 32.74 121.818 33.2667 121.084 33.64C120.364 34.0133 119.471 34.2 118.404 34.2ZM118.404 32.22C119.111 32.22 119.658 32 120.044 31.56C120.431 31.1067 120.644 30.4467 120.684 29.58C120.698 29.38 120.704 29.12 120.704 28.8C120.704 28.48 120.698 28.22 120.684 28.02C120.644 27.1667 120.431 26.5133 120.044 26.06C119.658 25.6067 119.111 25.38 118.404 25.38C117.698 25.38 117.151 25.6067 116.764 26.06C116.378 26.5133 116.164 27.1667 116.124 28.02C116.111 28.22 116.104 28.48 116.104 28.8C116.104 29.12 116.111 29.38 116.124 29.58C116.164 30.4467 116.378 31.1067 116.764 31.56C117.151 32 117.698 32.22 118.404 32.22ZM126.12 34C125.987 34 125.874 33.9533 125.78 33.86C125.687 33.7667 125.64 33.6533 125.64 33.52V24.1C125.64 23.9533 125.687 23.8333 125.78 23.74C125.874 23.6467 125.987 23.6 126.12 23.6H127.74C127.874 23.6 127.987 23.6467 128.08 23.74C128.187 23.8333 128.24 23.9533 128.24 24.1V24.92C128.547 24.4933 128.94 24.1667 129.42 23.94C129.914 23.7133 130.48 23.6 131.12 23.6H131.94C132.087 23.6 132.2 23.6467 132.28 23.74C132.374 23.8333 132.42 23.9467 132.42 24.08V25.52C132.42 25.6533 132.374 25.7667 132.28 25.86C132.2 25.9533 132.087 26 131.94 26H130.38C129.74 26 129.24 26.18 128.88 26.54C128.534 26.9 128.36 27.3933 128.36 28.02V33.52C128.36 33.6533 128.314 33.7667 128.22 33.86C128.127 33.9533 128.007 34 127.86 34H126.12ZM137.92 34.2C137.12 34.2 136.433 34.1067 135.86 33.92C135.3 33.7333 134.84 33.5 134.48 33.22C134.12 32.94 133.853 32.66 133.68 32.38C133.507 32.1 133.413 31.8667 133.4 31.68C133.387 31.5333 133.427 31.42 133.52 31.34C133.627 31.2467 133.74 31.2 133.86 31.2H135.44C135.493 31.2 135.54 31.2067 135.58 31.22C135.62 31.2333 135.673 31.2733 135.74 31.34C135.913 31.4867 136.093 31.64 136.28 31.8C136.48 31.96 136.713 32.1 136.98 32.22C137.247 32.3267 137.58 32.38 137.98 32.38C138.5 32.38 138.933 32.28 139.28 32.08C139.64 31.8667 139.82 31.5667 139.82 31.18C139.82 30.9 139.74 30.6733 139.58 30.5C139.433 30.3267 139.153 30.1733 138.74 30.04C138.327 29.8933 137.74 29.74 136.98 29.58C136.233 29.4067 135.613 29.1867 135.12 28.92C134.627 28.6533 134.26 28.32 134.02 27.92C133.78 27.52 133.66 27.0533 133.66 26.52C133.66 26 133.813 25.5067 134.12 25.04C134.44 24.56 134.907 24.1667 135.52 23.86C136.147 23.5533 136.92 23.4 137.84 23.4C138.56 23.4 139.187 23.4933 139.72 23.68C140.253 23.8533 140.693 24.0733 141.04 24.34C141.4 24.6067 141.673 24.88 141.86 25.16C142.047 25.4267 142.147 25.66 142.16 25.86C142.173 26.0067 142.133 26.1267 142.04 26.22C141.947 26.3 141.84 26.34 141.72 26.34H140.24C140.173 26.34 140.113 26.3267 140.06 26.3C140.007 26.2733 139.953 26.24 139.9 26.2C139.753 26.0667 139.593 25.9267 139.42 25.78C139.247 25.6333 139.033 25.5067 138.78 25.4C138.54 25.28 138.22 25.22 137.82 25.22C137.313 25.22 136.927 25.3333 136.66 25.56C136.393 25.7733 136.26 26.0467 136.26 26.38C136.26 26.6067 136.32 26.8067 136.44 26.98C136.573 27.14 136.833 27.2933 137.22 27.44C137.607 27.5867 138.193 27.74 138.98 27.9C139.873 28.06 140.58 28.3 141.1 28.62C141.633 28.9267 142.007 29.2867 142.22 29.7C142.447 30.1 142.56 30.5467 142.56 31.04C142.56 31.64 142.38 32.18 142.02 32.66C141.673 33.14 141.153 33.52 140.46 33.8C139.78 34.0667 138.933 34.2 137.92 34.2Z" fill="#555555"/>
<path d="M15.3404 30.8964C16.1487 30.9699 16.7228 30.8695 17.0628 30.5953C17.4057 30.2999 17.6277 29.8685 17.7287 29.3011C17.8537 28.7156 17.968 28.0532 18.0715 27.3137L19.9884 13.6232C20.0476 13.2007 20.1143 12.8008 20.1887 12.4236C20.266 12.0252 20.3374 11.6691 20.4029 11.3552C20.0199 11.3215 19.6368 11.2878 19.2538 11.2541C18.8708 11.2204 18.4878 11.1867 18.1047 11.153L18.3 9.75858L25.779 10.8053C27.6793 11.0794 29.3903 11.5526 30.9117 12.2247C32.4332 12.8969 33.699 13.78 34.709 14.8741C35.7431 15.9501 36.4673 17.2401 36.8814 18.7439C37.3196 20.2297 37.4056 21.9233 37.1394 23.8248C36.9352 25.2826 36.4866 26.6404 35.7935 27.8983C35.1004 29.1562 34.1746 30.2297 33.0162 31.1187C31.8607 31.9866 30.4799 32.6172 28.8739 33.0106C27.2919 33.3858 25.5085 33.4303 23.5237 33.1439L15.194 31.9422L15.3404 30.8964ZM20.6584 28.9155C20.5785 29.4859 20.4999 29.9703 20.4226 30.3687C20.3664 30.7701 20.298 31.1051 20.2173 31.3737C20.7844 31.4771 21.2988 31.5728 21.7603 31.661C22.246 31.731 22.6472 31.7889 22.9639 31.8346C23.3017 31.8833 23.5129 31.9138 23.5973 31.926C24.9698 32.124 26.2405 32.0487 27.4094 31.7C28.5995 31.3544 29.6473 30.7943 30.5528 30.0197C31.4823 29.227 32.2426 28.2589 32.8335 27.1156C33.4485 25.9542 33.855 24.6657 34.0532 23.2502C34.3343 21.2431 34.2073 19.4574 33.6724 17.893C33.1616 16.3105 32.2128 15.0097 30.8261 13.9906C29.4423 12.9503 27.5891 12.2627 25.2665 11.9276C24.4852 11.8149 23.914 11.8941 23.553 12.1653C23.213 12.4396 22.9819 12.8589 22.8598 13.4232C22.7589 13.9906 22.6551 14.6546 22.5486 15.4152L20.6584 28.9155Z" fill="#2D719D"/>
</svg>
