<svg width="21" height="20" viewBox="0 0 21 20" fill="none" xmlns="http://www.w3.org/2000/svg">
<path d="M6 16C4.9 16 4.01 16.9 4.01 18C4.01 19.1 4.9 20 6 20C7.1 20 8 19.1 8 18C8 16.9 7.1 16 6 16ZM0 1C0 1.55 0.45 2 1 2H2L5.6 9.59L4.25 12.03C3.52 13.37 4.48 15 6 15H17C17.55 15 18 14.55 18 14C18 13.45 17.55 13 17 13H6L7.1 11H14.55C15.3 11 15.96 10.59 16.3 9.97L19.88 3.48C19.9643 3.32843 20.0075 3.15747 20.0054 2.98406C20.0034 2.81064 19.956 2.64077 19.8681 2.49126C19.7803 2.34175 19.6549 2.21778 19.5043 2.13162C19.3538 2.04546 19.1834 2.00009 19.01 2H4.21L3.54 0.570001C3.45963 0.399307 3.3323 0.255042 3.17291 0.154095C3.01352 0.0531475 2.82867 -0.000302861 2.64 1.29085e-06H1C0.45 1.29085e-06 0 0.450001 0 1ZM16 16C14.9 16 14.01 16.9 14.01 18C14.01 19.1 14.9 20 16 20C17.1 20 18 19.1 18 18C18 16.9 17.1 16 16 16Z" fill="#555555"/>
</svg>
