<svg width="46" height="46" viewBox="0 0 46 46" fill="none" xmlns="http://www.w3.org/2000/svg">
<path fill-rule="evenodd" clip-rule="evenodd" d="M40.1431 20.4878C40.1431 20.4878 40.8248 20.8672 41.2213 21.5397C41.2213 21.5397 41.6197 22.2154 41.6197 22.9998C41.6197 22.9998 41.6197 23.7842 41.2213 24.4599C41.2213 24.4599 40.8229 25.1357 40.1365 25.5154L9.79383 42.5102C9.79383 42.5102 9.00134 42.9481 8.10883 42.8584C8.10883 42.8584 7.21632 42.7687 6.53315 42.1874C6.53315 42.1874 5.84998 41.6061 5.61857 40.7395C5.61857 40.7395 5.38716 39.8728 5.68962 39.0284L11.4038 22.9998L5.68891 6.96924C5.68891 6.96924 5.38716 6.12676 5.61857 5.26012C5.61857 5.26012 5.84998 4.39348 6.53315 3.81219C6.53315 3.81219 7.21632 3.2309 8.10883 3.14122C8.10883 3.14122 9.00134 3.05154 9.7865 3.4853L40.1365 20.4842L40.1431 20.4878ZM8.39625 6.00182L38.7381 22.9962L38.7447 22.9998L8.39625 39.9978L14.1024 23.9918C14.1024 23.9918 14.4911 22.9998 14.1024 22.0078L8.39625 6.00182Z" fill="black" fill-opacity="0.2"/>
<path d="M12.9367 24.4374H24.4367C25.2306 24.4374 25.8742 23.7938 25.8742 22.9999C25.8742 22.206 25.2306 21.5624 24.4367 21.5624H12.9367C12.1428 21.5624 11.4992 22.206 11.4992 22.9999C11.4992 23.7938 12.1428 24.4374 12.9367 24.4374Z" fill="black" fill-opacity="0.2"/>
</svg>
