<svg width="448" height="248" viewBox="0 0 448 248" fill="none" xmlns="http://www.w3.org/2000/svg">
<g filter="url(#filter0_d_8_3060)">
<rect x="25" y="149.489" width="397.152" height="61.3779" rx="10" fill="#2D719D"/>
</g>
<path d="M190.936 185V171.434H192.646V183.48H198.574V185H190.936ZM211.236 179.889C211.236 180.738 211.122 181.491 210.894 182.15C210.678 182.796 210.362 183.347 209.944 183.803C209.538 184.259 209.038 184.607 208.443 184.848C207.86 185.076 207.208 185.19 206.486 185.19C205.814 185.19 205.194 185.076 204.624 184.848C204.054 184.607 203.56 184.259 203.142 183.803C202.724 183.347 202.394 182.796 202.154 182.15C201.926 181.491 201.812 180.738 201.812 179.889C201.812 178.762 202.002 177.812 202.382 177.039C202.762 176.254 203.306 175.658 204.016 175.253C204.725 174.835 205.567 174.626 206.543 174.626C207.467 174.626 208.278 174.835 208.975 175.253C209.684 175.658 210.235 176.254 210.628 177.039C211.033 177.812 211.236 178.762 211.236 179.889ZM203.541 179.889C203.541 180.687 203.642 181.384 203.845 181.979C204.06 182.562 204.389 183.011 204.833 183.328C205.276 183.645 205.84 183.803 206.524 183.803C207.208 183.803 207.771 183.645 208.215 183.328C208.658 183.011 208.981 182.562 209.184 181.979C209.399 181.384 209.507 180.687 209.507 179.889C209.507 179.078 209.399 178.388 209.184 177.818C208.968 177.248 208.639 176.811 208.196 176.507C207.765 176.19 207.201 176.032 206.505 176.032C205.466 176.032 204.712 176.374 204.244 177.058C203.775 177.742 203.541 178.686 203.541 179.889ZM219.206 174.626C219.877 174.626 220.479 174.753 221.011 175.006C221.555 175.259 222.018 175.646 222.398 176.165H222.493L222.721 174.816H224.051V185.171C224.051 186.134 223.886 186.938 223.557 187.584C223.227 188.243 222.727 188.737 222.056 189.066C221.384 189.395 220.529 189.56 219.491 189.56C218.756 189.56 218.078 189.503 217.458 189.389C216.85 189.288 216.305 189.129 215.824 188.914V187.375C216.153 187.54 216.514 187.679 216.907 187.793C217.299 187.92 217.724 188.015 218.18 188.078C218.636 188.141 219.104 188.173 219.586 188.173C220.46 188.173 221.144 187.913 221.638 187.394C222.144 186.887 222.398 186.191 222.398 185.304V184.905C222.398 184.753 222.404 184.538 222.417 184.259C222.429 183.968 222.442 183.765 222.455 183.651H222.379C222.024 184.17 221.581 184.557 221.049 184.81C220.529 185.063 219.921 185.19 219.225 185.19C217.907 185.19 216.875 184.728 216.128 183.803C215.393 182.878 215.026 181.586 215.026 179.927C215.026 178.838 215.19 177.9 215.52 177.115C215.862 176.317 216.343 175.703 216.964 175.272C217.584 174.841 218.332 174.626 219.206 174.626ZM219.434 176.032C218.864 176.032 218.376 176.184 217.971 176.488C217.578 176.792 217.274 177.235 217.059 177.818C216.856 178.401 216.755 179.11 216.755 179.946C216.755 181.2 216.983 182.163 217.439 182.834C217.907 183.493 218.585 183.822 219.472 183.822C219.991 183.822 220.434 183.759 220.802 183.632C221.169 183.493 221.473 183.284 221.714 183.005C221.954 182.714 222.132 182.346 222.246 181.903C222.36 181.46 222.417 180.934 222.417 180.326V179.927C222.417 179.002 222.309 178.255 222.094 177.685C221.891 177.115 221.568 176.697 221.125 176.431C220.681 176.165 220.118 176.032 219.434 176.032ZM230.667 174.816V185H228.995V174.816H230.667ZM229.85 170.997C230.103 170.997 230.325 171.086 230.515 171.263C230.718 171.428 230.819 171.694 230.819 172.061C230.819 172.416 230.718 172.682 230.515 172.859C230.325 173.036 230.103 173.125 229.85 173.125C229.571 173.125 229.337 173.036 229.147 172.859C228.957 172.682 228.862 172.416 228.862 172.061C228.862 171.694 228.957 171.428 229.147 171.263C229.337 171.086 229.571 170.997 229.85 170.997ZM240.505 174.626C241.721 174.626 242.64 174.924 243.26 175.519C243.881 176.102 244.191 177.052 244.191 178.369V185H242.538V178.483C242.538 177.66 242.355 177.045 241.987 176.64C241.62 176.235 241.044 176.032 240.258 176.032C239.131 176.032 238.352 176.349 237.921 176.982C237.491 177.615 237.275 178.527 237.275 179.718V185H235.603V174.816H236.952L237.199 176.203H237.294C237.522 175.848 237.801 175.557 238.13 175.329C238.472 175.088 238.846 174.911 239.251 174.797C239.657 174.683 240.075 174.626 240.505 174.626Z" fill="white"/>
<rect x="25" y="8.18359" width="397.152" height="61.3779" rx="10" fill="#EAF0F7"/>
<path d="M54.6674 44L53.1194 40.022H48.0254L46.4954 44H44.8574L49.8794 31.094H51.3374L56.3414 44H54.6674ZM51.1934 34.694C51.1574 34.598 51.0974 34.424 51.0134 34.172C50.9294 33.92 50.8454 33.662 50.7614 33.398C50.6894 33.122 50.6294 32.912 50.5814 32.768C50.5214 33.008 50.4554 33.254 50.3834 33.506C50.3234 33.746 50.2574 33.968 50.1854 34.172C50.1254 34.376 50.0714 34.55 50.0234 34.694L48.5654 38.582H52.6334L51.1934 34.694ZM67.5675 34.352V44H66.2715L66.0375 42.722H65.9655C65.7615 43.058 65.4975 43.334 65.1735 43.55C64.8495 43.766 64.4955 43.922 64.1115 44.018C63.7275 44.126 63.3255 44.18 62.9055 44.18C62.1375 44.18 61.4895 44.06 60.9615 43.82C60.4455 43.568 60.0555 43.184 59.7915 42.668C59.5275 42.152 59.3955 41.486 59.3955 40.67V34.352H60.9975V40.562C60.9975 41.33 61.1715 41.906 61.5195 42.29C61.8675 42.674 62.4075 42.866 63.1395 42.866C63.8595 42.866 64.4235 42.734 64.8315 42.47C65.2515 42.194 65.5455 41.798 65.7135 41.282C65.8935 40.754 65.9835 40.118 65.9835 39.374V34.352H67.5675ZM75.4725 42.884C75.7125 42.884 75.9585 42.866 76.2105 42.83C76.4625 42.782 76.6665 42.734 76.8225 42.686V43.892C76.6545 43.976 76.4145 44.042 76.1025 44.09C75.7905 44.15 75.4905 44.18 75.2025 44.18C74.6985 44.18 74.2305 44.096 73.7985 43.928C73.3785 43.748 73.0365 43.442 72.7725 43.01C72.5085 42.578 72.3765 41.972 72.3765 41.192V35.576H71.0085V34.82L72.3945 34.19L73.0245 32.138H73.9605V34.352H76.7505V35.576H73.9605V41.156C73.9605 41.744 74.0985 42.182 74.3745 42.47C74.6625 42.746 75.0285 42.884 75.4725 42.884ZM81.9584 34.334C81.9584 34.562 81.9464 34.796 81.9224 35.036C81.9104 35.276 81.8924 35.492 81.8684 35.684H81.9764C82.1804 35.348 82.4384 35.072 82.7504 34.856C83.0624 34.64 83.4104 34.478 83.7944 34.37C84.1784 34.25 84.5744 34.19 84.9824 34.19C85.7624 34.19 86.4104 34.316 86.9264 34.568C87.4544 34.808 87.8504 35.186 88.1144 35.702C88.3784 36.218 88.5104 36.89 88.5104 37.718V44H86.9444V37.826C86.9444 37.046 86.7704 36.464 86.4224 36.08C86.0744 35.696 85.5284 35.504 84.7844 35.504C84.0644 35.504 83.5004 35.642 83.0924 35.918C82.6844 36.182 82.3904 36.578 82.2104 37.106C82.0424 37.622 81.9584 38.258 81.9584 39.014V44H80.3744V30.32H81.9584V34.334ZM103.621 44.18C102.769 44.18 102.007 44.006 101.335 43.658C100.675 43.31 100.153 42.77 99.7691 42.038C99.3971 41.306 99.2111 40.37 99.2111 39.23C99.2111 38.042 99.4091 37.076 99.8051 36.332C100.201 35.588 100.735 35.042 101.407 34.694C102.091 34.346 102.865 34.172 103.729 34.172C104.221 34.172 104.695 34.226 105.151 34.334C105.607 34.43 105.979 34.55 106.267 34.694L105.781 36.008C105.493 35.9 105.157 35.798 104.773 35.702C104.389 35.606 104.029 35.558 103.693 35.558C103.045 35.558 102.511 35.696 102.091 35.972C101.671 36.248 101.359 36.656 101.155 37.196C100.951 37.736 100.849 38.408 100.849 39.212C100.849 39.98 100.951 40.634 101.155 41.174C101.359 41.714 101.665 42.122 102.073 42.398C102.481 42.674 102.991 42.812 103.603 42.812C104.131 42.812 104.593 42.758 104.989 42.65C105.397 42.542 105.769 42.41 106.105 42.254V43.658C105.781 43.826 105.421 43.952 105.025 44.036C104.641 44.132 104.173 44.18 103.621 44.18ZM118.408 39.158C118.408 39.962 118.3 40.676 118.084 41.3C117.88 41.912 117.58 42.434 117.184 42.866C116.8 43.298 116.326 43.628 115.762 43.856C115.21 44.072 114.592 44.18 113.908 44.18C113.272 44.18 112.684 44.072 112.144 43.856C111.604 43.628 111.136 43.298 110.74 42.866C110.344 42.434 110.032 41.912 109.804 41.3C109.588 40.676 109.48 39.962 109.48 39.158C109.48 38.09 109.66 37.19 110.02 36.458C110.38 35.714 110.896 35.15 111.568 34.766C112.24 34.37 113.038 34.172 113.962 34.172C114.838 34.172 115.606 34.37 116.266 34.766C116.938 35.15 117.46 35.714 117.832 36.458C118.216 37.19 118.408 38.09 118.408 39.158ZM111.118 39.158C111.118 39.914 111.214 40.574 111.406 41.138C111.61 41.69 111.922 42.116 112.342 42.416C112.762 42.716 113.296 42.866 113.944 42.866C114.592 42.866 115.126 42.716 115.546 42.416C115.966 42.116 116.272 41.69 116.464 41.138C116.668 40.574 116.77 39.914 116.77 39.158C116.77 38.39 116.668 37.736 116.464 37.196C116.26 36.656 115.948 36.242 115.528 35.954C115.12 35.654 114.586 35.504 113.926 35.504C112.942 35.504 112.228 35.828 111.784 36.476C111.34 37.124 111.118 38.018 111.118 39.158ZM125.958 44.18C124.758 44.18 123.798 43.766 123.078 42.938C122.358 42.098 121.998 40.85 121.998 39.194C121.998 37.538 122.358 36.29 123.078 35.45C123.81 34.598 124.776 34.172 125.976 34.172C126.48 34.172 126.918 34.238 127.29 34.37C127.662 34.49 127.986 34.658 128.262 34.874C128.538 35.09 128.772 35.33 128.964 35.594H129.072C129.06 35.438 129.036 35.21 129 34.91C128.976 34.598 128.964 34.352 128.964 34.172V30.32H130.548V44H129.27L129.036 42.704H128.964C128.772 42.98 128.538 43.232 128.262 43.46C127.986 43.676 127.656 43.85 127.272 43.982C126.9 44.114 126.462 44.18 125.958 44.18ZM126.21 42.866C127.23 42.866 127.944 42.59 128.352 42.038C128.772 41.474 128.982 40.628 128.982 39.5V39.212C128.982 38.012 128.784 37.094 128.388 36.458C127.992 35.81 127.26 35.486 126.192 35.486C125.34 35.486 124.698 35.828 124.266 36.512C123.846 37.184 123.636 38.09 123.636 39.23C123.636 40.382 123.846 41.276 124.266 41.912C124.698 42.548 125.346 42.866 126.21 42.866ZM138.958 34.172C139.786 34.172 140.494 34.352 141.082 34.712C141.682 35.072 142.138 35.582 142.45 36.242C142.774 36.89 142.936 37.652 142.936 38.528V39.482H136.33C136.354 40.574 136.63 41.408 137.158 41.984C137.698 42.548 138.448 42.83 139.408 42.83C140.02 42.83 140.56 42.776 141.028 42.668C141.508 42.548 142 42.38 142.504 42.164V43.55C142.012 43.766 141.526 43.922 141.046 44.018C140.566 44.126 139.996 44.18 139.336 44.18C138.424 44.18 137.614 43.994 136.906 43.622C136.21 43.25 135.664 42.698 135.268 41.966C134.884 41.222 134.692 40.316 134.692 39.248C134.692 38.192 134.866 37.286 135.214 36.53C135.574 35.774 136.072 35.192 136.708 34.784C137.356 34.376 138.106 34.172 138.958 34.172ZM138.94 35.468C138.184 35.468 137.584 35.714 137.14 36.206C136.708 36.686 136.45 37.358 136.366 38.222H141.28C141.28 37.67 141.196 37.19 141.028 36.782C140.86 36.374 140.602 36.056 140.254 35.828C139.918 35.588 139.48 35.468 138.94 35.468Z" fill="#4F555A"/>
<defs>
<filter id="filter0_d_8_3060" x="0" y="136.489" width="447.152" height="111.378" filterUnits="userSpaceOnUse" color-interpolation-filters="sRGB">
<feFlood flood-opacity="0" result="BackgroundImageFix"/>
<feColorMatrix in="SourceAlpha" type="matrix" values="0 0 0 0 0 0 0 0 0 0 0 0 0 0 0 0 0 0 127 0" result="hardAlpha"/>
<feMorphology radius="4" operator="dilate" in="SourceAlpha" result="effect1_dropShadow_8_3060"/>
<feOffset dy="12"/>
<feGaussianBlur stdDeviation="10.5"/>
<feComposite in2="hardAlpha" operator="out"/>
<feColorMatrix type="matrix" values="0 0 0 0 0.266667 0 0 0 0 0.380392 0 0 0 0 0.94902 0 0 0 0.15 0"/>
<feBlend mode="normal" in2="BackgroundImageFix" result="effect1_dropShadow_8_3060"/>
<feBlend mode="normal" in="SourceGraphic" in2="effect1_dropShadow_8_3060" result="shape"/>
</filter>
</defs>
</svg>
