<svg width="18" height="20" viewBox="0 0 18 20" fill="none" xmlns="http://www.w3.org/2000/svg">
<path d="M1 11.1111H7C7.55 11.1111 8 10.6111 8 10V1.11111C8 0.5 7.55 0 7 0H1C0.45 0 0 0.5 0 1.11111V10C0 10.6111 0.45 11.1111 1 11.1111ZM1 20H7C7.55 20 8 19.5 8 18.8889V14.4444C8 13.8333 7.55 13.3333 7 13.3333H1C0.45 13.3333 0 13.8333 0 14.4444V18.8889C0 19.5 0.45 20 1 20ZM11 20H17C17.55 20 18 19.5 18 18.8889V10C18 9.38889 17.55 8.88889 17 8.88889H11C10.45 8.88889 10 9.38889 10 10V18.8889C10 19.5 10.45 20 11 20ZM10 1.11111V5.55556C10 6.16667 10.45 6.66667 11 6.66667H17C17.55 6.66667 18 6.16667 18 5.55556V1.11111C18 0.5 17.55 0 17 0H11C10.45 0 10 0.5 10 1.11111Z" fill="#555555"/>
</svg>
