<svg width="97" height="73" viewBox="0 0 97 73" fill="none" xmlns="http://www.w3.org/2000/svg">
<path d="M73.4498 10.5871L64.0197 13.4659L61.6863 5.82254C60.403 1.61868 55.9581 -0.784475 51.8088 0.4822L6.54412 14.3005C2.39485 15.5671 0.0500067 20.043 1.33335 24.2469L11.8334 58.6421C13.1168 62.846 17.5616 65.2491 21.7109 63.9825C23.6476 70.3265 30.2655 73.9045 36.5271 71.993C42.7887 70.0814 46.2799 63.4173 44.3432 57.0733L66.9756 50.1642C68.9123 56.5082 75.5302 60.0862 81.7918 58.1747C88.0534 56.2632 91.5446 49.5991 89.608 43.2551L93.38 42.1035C95.4547 41.4702 96.6271 39.2323 95.9854 37.1303L92.1004 24.4041C91.5987 22.7608 90.5806 21.3169 89.1916 20.2787L76.9341 11.1946C75.9258 10.4579 74.6191 10.2301 73.4498 10.5871ZM34.1937 64.3496C32.1191 64.9829 29.8967 63.7814 29.255 61.6794C28.6133 59.5775 29.7858 57.3395 31.8604 56.7062C33.935 56.0729 36.1575 57.2744 36.7991 59.3764C37.4408 61.4783 36.2684 63.7163 34.1937 64.3496ZM75.1998 16.3197L85.5097 23.6169L68.6864 28.7527L65.7697 19.1985L75.1998 16.3197ZM79.4585 50.5313C77.3838 51.1647 75.1614 49.9631 74.5197 47.8612C73.8781 45.7592 75.0505 43.5213 77.1251 42.8879C79.1997 42.2546 81.4222 43.4562 82.0638 45.5581C82.7055 47.66 81.5331 49.898 79.4585 50.5313Z" fill="white" fill-opacity="0.13"/>
</svg>
