<svg width="102" height="95" viewBox="0 0 102 95" fill="none" xmlns="http://www.w3.org/2000/svg">
<path d="M51.7148 78.4636C47.5891 80.54 45.9505 85.5965 48.0275 89.7233C50.1045 93.8501 55.1419 95.5466 59.2676 93.4701C63.3932 91.3937 65.0694 86.3183 62.9924 82.1915C60.9153 78.0647 55.8404 76.3871 51.7148 78.4636ZM0.888204 33.5153C1.92671 35.5787 4.46417 36.4175 6.527 35.3792L10.2776 33.4916L38.1112 55.1707L37.6551 66.8731C37.4473 73.2783 44.1257 77.5812 49.8266 74.712L91.0831 53.9475C93.1459 52.9092 93.984 50.3716 92.9455 48.3082C91.907 46.2448 89.3695 45.406 87.3067 46.4442L46.0502 67.2087L46.3994 57.629L74.3413 43.5658C77.1543 42.15 78.8555 39.366 78.96 36.3982L80.1327 5.29222C80.1626 4.56448 80.002 3.84151 79.6667 3.19484C79.3315 2.54818 78.8333 2.00023 78.2213 1.60523C77.6094 1.21023 76.905 0.98186 76.1778 0.942726C75.4506 0.903589 74.7258 1.05504 74.0752 1.3821L18.5664 29.3198L13.3534 25.2197C12.7296 24.731 11.9797 24.4302 11.1912 24.3523C10.4028 24.2745 9.60861 24.4229 8.90157 24.7802L2.7506 27.876C0.687769 28.9142 -0.150307 31.4519 0.888204 33.5153ZM89.2207 59.5868C85.0951 61.6632 83.4564 66.7197 85.5334 70.8465C87.6105 74.9733 92.6479 76.6697 96.7735 74.5933C100.899 72.5168 102.575 67.4415 100.498 63.3147C98.4213 59.1879 93.3464 57.5103 89.2207 59.5868Z" fill="white" fill-opacity="0.13"/>
</svg>
