<svg width="78" height="82" viewBox="0 0 78 82" fill="none" xmlns="http://www.w3.org/2000/svg">
<path d="M44.0452 5.03566L37.3874 8.7559C33.2765 1.39901 23.9882 -1.23012 16.6313 2.88074C9.27439 6.99161 6.64526 16.28 10.7561 23.6369L4.09831 27.3571C0.436507 29.4033 -0.885403 34.0734 1.16073 37.7352L23.4822 77.6821C25.5283 81.3439 30.1985 82.6658 33.8603 80.6197L73.8072 58.2982C77.469 56.2521 78.7909 51.582 76.7448 47.9202L54.4233 7.97323C52.3772 4.31143 47.707 2.98952 44.0452 5.03566ZM24.8544 33.2323C25.8775 35.0632 25.2166 37.3982 23.3857 38.4213C21.5548 39.4444 19.2197 38.7834 18.1966 36.9525L14.4764 30.2947L21.1342 26.5745L24.8544 33.2323ZM20.3515 9.53857C24.0133 7.49243 28.6835 8.81434 30.7296 12.4761L17.414 19.9166C15.3678 16.2548 16.6897 11.5847 20.3515 9.53857ZM44.8279 22.0715C45.851 23.9024 45.19 26.2375 43.3591 27.2606C41.5282 28.2836 39.1932 27.6227 38.1701 25.7918L34.4498 19.134L41.1077 15.4137L44.8279 22.0715Z" fill="white" fill-opacity="0.13"/>
</svg>
