<svg width="105" height="105" viewBox="0 0 105 105" fill="none" xmlns="http://www.w3.org/2000/svg">
<g filter="url(#filter0_d_8_2323)">
<ellipse cx="52.4245" cy="50.4472" rx="19.4245" ry="19.4472" fill="white"/>
</g>
<path d="M52.424 59.7536L44.1831 51.5031C43.0902 50.4091 42.4762 48.9251 42.4761 47.3778C42.476 45.8304 43.0899 44.3464 44.1827 43.2522C45.2755 42.158 46.7577 41.5432 48.3032 41.5431C49.8488 41.543 51.331 42.1576 52.424 43.2517C53.5174 42.1588 54.9993 41.545 56.5444 41.545C58.0894 41.545 59.5713 42.1588 60.6648 43.2517C61.7559 44.3467 62.3686 45.8302 62.3686 47.3769C62.3686 48.9236 61.7559 50.4072 60.6648 51.5022L52.424 59.7536ZM48.3031 43.488C47.5346 43.4879 46.7835 43.7161 46.1445 44.1435C45.5056 44.5709 45.0076 45.1785 44.7136 45.8893C44.4196 46.6001 44.3428 47.3822 44.4928 48.1368C44.6428 48.8913 45.013 49.5843 45.5565 50.1282L52.424 57.0038L59.2915 50.1282C59.6859 49.7421 59.9937 49.2763 60.1944 48.7618C60.395 48.2474 60.4839 47.696 60.4552 47.1444C60.4264 46.5929 60.2807 46.0538 60.0276 45.563C59.7746 45.0722 59.42 44.6411 58.9876 44.2982C58.5551 43.9552 58.0547 43.7085 57.5195 43.5743C56.9844 43.4401 56.4269 43.4215 55.884 43.5198C55.3412 43.6182 54.8255 43.8311 54.3712 44.1445C53.9169 44.4579 53.5346 44.8645 53.2495 45.3374L52.424 46.6715L51.5984 45.3374C51.2576 44.7686 50.7743 44.2989 50.1962 43.9748C49.6182 43.6507 48.9656 43.4836 48.3031 43.4899V43.488Z" fill="#757575"/>
<defs>
<filter id="filter0_d_8_2323" x="0" y="0" width="104.849" height="104.895" filterUnits="userSpaceOnUse" color-interpolation-filters="sRGB">
<feFlood flood-opacity="0" result="BackgroundImageFix"/>
<feColorMatrix in="SourceAlpha" type="matrix" values="0 0 0 0 0 0 0 0 0 0 0 0 0 0 0 0 0 0 127 0" result="hardAlpha"/>
<feOffset dy="2"/>
<feGaussianBlur stdDeviation="16.5"/>
<feComposite in2="hardAlpha" operator="out"/>
<feColorMatrix type="matrix" values="0 0 0 0 0 0 0 0 0 0 0 0 0 0 0 0 0 0 0.09 0"/>
<feBlend mode="normal" in2="BackgroundImageFix" result="effect1_dropShadow_8_2323"/>
<feBlend mode="normal" in="SourceGraphic" in2="effect1_dropShadow_8_2323" result="shape"/>
</filter>
</defs>
</svg>
